  0
SECTION
  2
BLOCKS
  0
ENDSEC
  0
SECTION
  2
ENTITIES
  0
LINE
  8
0
 10
61.026
 20
1.02605
 11
61.9739
 21
1.02605
  0
LINE
  8
0
 10
61.9739
 20
1.02605
 11
62
 21
1.02626
  0
LINE
  8
0
 10
62
 20
1.02626
 11
62.0267
 21
1.02672
  0
LINE
  8
0
 10
62.0267
 20
1.02672
 11
62.9733
 21
1.02672
  0
LINE
  8
0
 10
62.9733
 20
1.02672
 11
63
 21
1.02719
  0
LINE
  8
0
 10
63
 20
1.02719
 11
63.0274
 21
1.02742
  0
LINE
  8
0
 10
63.0274
 20
1.02742
 11
63.9726
 21
1.02742
  0
LINE
  8
0
 10
63.9726
 20
1.02742
 11
64
 21
1.02766
  0
LINE
  8
0
 10
64
 20
1.02766
 11
64.0284
 21
1.02843
  0
LINE
  8
0
 10
64.0284
 20
1.02843
 11
64.9716
 21
1.02843
  0
LINE
  8
0
 10
64.9716
 20
1.02843
 11
65
 21
1.02924
  0
LINE
  8
0
 10
65
 20
1.02924
 11
65.0307
 21
1.03069
  0
LINE
  8
0
 10
65.0307
 20
1.03069
 11
65.9693
 21
1.03069
  0
LINE
  8
0
 10
65.9693
 20
1.03069
 11
66.0341
 21
1.03406
  0
LINE
  8
0
 10
66.0341
 20
1.03406
 11
66.9659
 21
1.03406
  0
LINE
  8
0
 10
66.9659
 20
1.03406
 11
67
 21
1.03604
  0
LINE
  8
0
 10
67
 20
1.03604
 11
67.0425
 21
1.04247
  0
LINE
  8
0
 10
67.0425
 20
1.04247
 11
67.9575
 21
1.04247
  0
LINE
  8
0
 10
67.9575
 20
1.04247
 11
68
 21
1.05167
  0
LINE
  8
0
 10
68
 20
1.05167
 11
68.0564
 21
1.05635
  0
LINE
  8
0
 10
68.0564
 20
1.05635
 11
68.9436
 21
1.05635
  0
LINE
  8
0
 10
68.9436
 20
1.05635
 11
69.0689
 21
1.06888
  0
LINE
  8
0
 10
69.0689
 20
1.06888
 11
69.9311
 21
1.06888
  0
LINE
  8
0
 10
69.9311
 20
1.06888
 11
70
 21
1.0775
  0
LINE
  8
0
 10
70
 20
1.0775
 11
70.0912
 21
1.09117
  0
LINE
  8
0
 10
70.0912
 20
1.09117
 11
70.9088
 21
1.09117
  0
LINE
  8
0
 10
70.9088
 20
1.09117
 11
71
 21
1.1107
  0
LINE
  8
0
 10
71
 20
1.1107
 11
71.1348
 21
1.13478
  0
LINE
  8
0
 10
71.1348
 20
1.13478
 11
71.8652
 21
1.13478
  0
LINE
  8
0
 10
71.8652
 20
1.13478
 11
72.2385
 21
1.23845
  0
LINE
  8
0
 10
72.2385
 20
1.23845
 11
72.7615
 21
1.23845
  0
LINE
  8
0
 10
72.7615
 20
1.23845
 11
73
 21
1.3875
  0
LINE
  8
0
 10
73
 20
1.3875
 11
73.49
 21
1.50999
  0
LINE
  8
0
 10
73.49
 20
1.50999
 11
73.55
 21
1.54999
  0
LINE
  8
0
 10
73.55
 20
1.54999
 11
74
 21
1.77499
  0
LINE
  8
0
 10
74
 20
1.77499
 11
74.18
 21
1.81999
  0
LINE
  8
0
 10
74.18
 20
1.81999
 11
74.45
 21
2
  0
LINE
  8
0
 10
74.45
 20
2
 11
75
 21
2.00246
  0
LINE
  8
0
 10
75
 20
2.00246
 11
75.0028
 21
2.00279
  0
LINE
  8
0
 10
75.0028
 20
2.00279
 11
75.9922
 21
2.00778
  0
LINE
  8
0
 10
75.9922
 20
2.00778
 11
76
 21
2.00896
  0
LINE
  8
0
 10
76
 20
2.00896
 11
76.0099
 21
2.00993
  0
LINE
  8
0
 10
76.0099
 20
2.00993
 11
76.9901
 21
2.00993
  0
LINE
  8
0
 10
76.9901
 20
2.00993
 11
77
 21
2.01115
  0
LINE
  8
0
 10
77
 20
2.01115
 11
77.0113
 21
2.01128
  0
LINE
  8
0
 10
77.0113
 20
2.01128
 11
77.9887
 21
2.01128
  0
LINE
  8
0
 10
77.9887
 20
2.01128
 11
78
 21
2.0114
  0
LINE
  8
0
 10
78
 20
2.0114
 11
78.0121
 21
2.01213
  0
LINE
  8
0
 10
78.0121
 20
2.01213
 11
78.9879
 21
2.01213
  0
LINE
  8
0
 10
78.9879
 20
2.01213
 11
79
 21
2.01295
  0
LINE
  8
0
 10
79
 20
2.01295
 11
79.0155
 21
2.01544
  0
LINE
  8
0
 10
79.0155
 20
2.01544
 11
79.9845
 21
2.01544
  0
LINE
  8
0
 10
79.9845
 20
2.01544
 11
80
 21
2.01915
  0
LINE
  8
0
 10
80
 20
2.01915
 11
80.0203
 21
2.02026
  0
LINE
  8
0
 10
80.0203
 20
2.02026
 11
80.9797
 21
2.02026
  0
LINE
  8
0
 10
80.9797
 20
2.02026
 11
81
 21
2.02151
  0
LINE
  8
0
 10
81
 20
2.02151
 11
81.0258
 21
2.02583
  0
LINE
  8
0
 10
81.0258
 20
2.02583
 11
81.9742
 21
2.02583
  0
LINE
  8
0
 10
81.9742
 20
2.02583
 11
82
 21
2.03229
  0
LINE
  8
0
 10
82
 20
2.03229
 11
82.0383
 21
2.03827
  0
LINE
  8
0
 10
82.0383
 20
2.03827
 11
82.9617
 21
2.03827
  0
LINE
  8
0
 10
82.9617
 20
2.03827
 11
83
 21
2.04697
  0
LINE
  8
0
 10
83
 20
2.04697
 11
83.0704
 21
2.07045
  0
LINE
  8
0
 10
83.0704
 20
2.07045
 11
83.9295
 21
2.07045
  0
LINE
  8
0
 10
83.9295
 20
2.07045
 11
84
 21
2.1409
  0
LINE
  8
0
 10
84
 20
2.1409
 11
84.2583
 21
2.25833
  0
LINE
  8
0
 10
84.2583
 20
2.25833
 11
84.7417
 21
2.25833
  0
LINE
  8
0
 10
84.7417
 20
2.25833
 11
84.8625
 21
2.86249
  0
LINE
  8
0
 10
84.8625
 20
2.86249
 11
84.945
 21
3
  0
LINE
  8
0
 10
84.945
 20
3
 11
85
 21
3.00272
  0
LINE
  8
0
 10
85
 20
3.00272
 11
85.0028
 21
3.00282
  0
LINE
  8
0
 10
85.0028
 20
3.00282
 11
85.9921
 21
3.0079
  0
LINE
  8
0
 10
85.9921
 20
3.0079
 11
86
 21
3.00826
  0
LINE
  8
0
 10
86
 20
3.00826
 11
86.0106
 21
3.0106
  0
LINE
  8
0
 10
86.0106
 20
3.0106
 11
86.9894
 21
3.0106
  0
LINE
  8
0
 10
86.9894
 20
3.0106
 11
87
 21
3.01482
  0
LINE
  8
0
 10
87
 20
3.01482
 11
87.0183
 21
3.01831
  0
LINE
  8
0
 10
87.0183
 20
3.01831
 11
87.9817
 21
3.01831
  0
LINE
  8
0
 10
87.9817
 20
3.01831
 11
88
 21
3.02397
  0
LINE
  8
0
 10
88
 20
3.02397
 11
88.0338
 21
3.03384
  0
LINE
  8
0
 10
88.0338
 20
3.03384
 11
88.9661
 21
3.03384
  0
LINE
  8
0
 10
88.9661
 20
3.03384
 11
89
 21
3.05756
  0
LINE
  8
0
 10
89
 20
3.05756
 11
89.1002
 21
3.10022
  0
LINE
  8
0
 10
89.1002
 20
3.10022
 11
89.8998
 21
3.10022
  0
LINE
  8
0
 10
89.8998
 20
3.10022
 11
90
 21
3.3875
  0
LINE
  8
0
 10
90
 20
3.3875
 11
90.4083
 21
3.59166
  0
LINE
  8
0
 10
90.4083
 20
3.59166
 11
90.6125
 21
4
  0
LINE
  8
0
 10
90.6125
 20
4
 11
90.9915
 21
4.00847
  0
LINE
  8
0
 10
90.9915
 20
4.00847
 11
91
 21
4.01077
  0
LINE
  8
0
 10
91
 20
4.01077
 11
91.0142
 21
4.01416
  0
LINE
  8
0
 10
91.0142
 20
4.01416
 11
91.9858
 21
4.01416
  0
LINE
  8
0
 10
91.9858
 20
4.01416
 11
92
 21
4.02068
  0
LINE
  8
0
 10
92
 20
4.02068
 11
92.0307
 21
4.0307
  0
LINE
  8
0
 10
92.0307
 20
4.0307
 11
92.9693
 21
4.0307
  0
LINE
  8
0
 10
92.9693
 20
4.0307
 11
93
 21
4.0596
  0
LINE
  8
0
 10
93
 20
4.0596
 11
93.1148
 21
4.11481
  0
LINE
  8
0
 10
93.1148
 20
4.11481
 11
93.8852
 21
4.11481
  0
LINE
  8
0
 10
93.8852
 20
4.11481
 11
93.9522
 21
4.95216
  0
LINE
  8
0
 10
93.9522
 20
4.95216
 11
93.978
 21
5
  0
LINE
  8
0
 10
93.978
 20
5
 11
93.9974
 21
5.00264
  0
LINE
  8
0
 10
93.9974
 20
5.00264
 11
94
 21
5.00293
  0
LINE
  8
0
 10
94
 20
5.00293
 11
94.0041
 21
5.00412
  0
LINE
  8
0
 10
94.0041
 20
5.00412
 11
94.9886
 21
5.01143
  0
LINE
  8
0
 10
94.9886
 20
5.01143
 11
95
 21
5.01891
  0
LINE
  8
0
 10
95
 20
5.01891
 11
95.0307
 21
5.0307
  0
LINE
  8
0
 10
95.0307
 20
5.0307
 11
95.9693
 21
5.0307
  0
LINE
  8
0
 10
95.9693
 20
5.0307
 11
96
 21
5.08157
  0
LINE
  8
0
 10
96
 20
5.08157
 11
96.1631
 21
5.16315
  0
LINE
  8
0
 10
96.1631
 20
5.16315
 11
96.8368
 21
5.16315
  0
LINE
  8
0
 10
96.8368
 20
5.16315
 11
96.8368
 21
5.83684
  0
LINE
  8
0
 10
96.8368
 20
5.83684
 11
96.9184
 21
6
  0
LINE
  8
0
 10
96.9184
 20
6
 11
96.9909
 21
6.00912
  0
LINE
  8
0
 10
96.9909
 20
6.00912
 11
97
 21
6.01306
  0
LINE
  8
0
 10
97
 20
6.01306
 11
97.0214
 21
6.02142
  0
LINE
  8
0
 10
97.0214
 20
6.02142
 11
97.9786
 21
6.02142
  0
LINE
  8
0
 10
97.9786
 20
6.02142
 11
98
 21
6.0596
  0
LINE
  8
0
 10
98
 20
6.0596
 11
98.1192
 21
6.11922
  0
LINE
  8
0
 10
98.1192
 20
6.11922
 11
98.8808
 21
6.11922
  0
LINE
  8
0
 10
98.8808
 20
6.11922
 11
98.8808
 21
6.88077
  0
LINE
  8
0
 10
98.8808
 20
6.88077
 11
98.9404
 21
7
  0
LINE
  8
0
 10
98.9404
 20
7
 11
98.9908
 21
7.0092
  0
LINE
  8
0
 10
98.9908
 20
7.0092
 11
99
 21
7.01427
  0
LINE
  8
0
 10
99
 20
7.01427
 11
99.0261
 21
7.02612
  0
LINE
  8
0
 10
99.0261
 20
7.02612
 11
99.9739
 21
7.02612
  0
LINE
  8
0
 10
99.9739
 20
7.02612
 11
100
 21
7.155
  0
LINE
  8
0
 10
100
 20
7.155
 11
100.31
 21
7.31
  0
LINE
  8
0
 10
100.31
 20
7.31
 11
100.69
 21
7.31
  0
LINE
  8
0
 10
100.69
 20
7.31
 11
100.69
 21
7.68999
  0
LINE
  8
0
 10
100.69
 20
7.68999
 11
100.845
 21
8
  0
LINE
  8
0
 10
100.845
 20
8
 11
100.987
 21
8.01315
  0
LINE
  8
0
 10
100.987
 20
8.01315
 11
101
 21
8.0378
  0
LINE
  8
0
 10
101
 20
8.0378
 11
101.076
 21
8.07561
  0
LINE
  8
0
 10
101.076
 20
8.07561
 11
101.924
 21
8.07561
  0
LINE
  8
0
 10
101.924
 20
8.07561
 11
101.924
 21
8.92438
  0
LINE
  8
0
 10
101.924
 20
8.92438
 11
101.962
 21
9
  0
LINE
  8
0
 10
101.962
 20
9
 11
101.99
 21
9.00957
  0
LINE
  8
0
 10
101.99
 20
9.00957
 11
102
 21
9.01808
  0
LINE
  8
0
 10
102
 20
9.01808
 11
102.036
 21
9.03574
  0
LINE
  8
0
 10
102.036
 20
9.03574
 11
102.964
 21
9.03574
  0
LINE
  8
0
 10
102.964
 20
9.03574
 11
102.987
 21
9.98669
  0
LINE
  8
0
 10
102.987
 20
9.98669
 11
102.993
 21
10
  0
LINE
  8
0
 10
102.993
 20
10
 11
102.997
 21
10.0028
  0
LINE
  8
0
 10
102.997
 20
10.0028
 11
103
 21
10.0047
  0
LINE
  8
0
 10
103
 20
10.0047
 11
103.009
 21
10.0093
  0
LINE
  8
0
 10
103.009
 20
10.0093
 11
103.975
 21
10.0253
  0
LINE
  8
0
 10
103.975
 20
10.0253
 11
104
 21
10.5167
  0
LINE
  8
0
 10
104
 20
10.5167
 11
104.322
 21
10.6778
  0
LINE
  8
0
 10
104.322
 20
10.6778
 11
104.483
 21
11
  0
LINE
  8
0
 10
104.483
 20
11
 11
104.977
 21
11.023
  0
LINE
  8
0
 10
104.977
 20
11.023
 11
105
 21
11.5167
  0
LINE
  8
0
 10
105
 20
11.5167
 11
105.322
 21
11.6778
  0
LINE
  8
0
 10
105.322
 20
11.6778
 11
105.483
 21
12
  0
LINE
  8
0
 10
105.483
 20
12
 11
105.974
 21
12.0257
  0
LINE
  8
0
 10
105.974
 20
12.0257
 11
105.991
 21
12.9906
  0
LINE
  8
0
 10
105.991
 20
12.9906
 11
105.995
 21
13
  0
LINE
  8
0
 10
105.995
 20
13
 11
105.997
 21
13.0028
  0
LINE
  8
0
 10
105.997
 20
13.0028
 11
106
 21
13.0065
  0
LINE
  8
0
 10
106
 20
13.0065
 11
106.013
 21
13.0133
  0
LINE
  8
0
 10
106.013
 20
13.0133
 11
106.964
 21
13.0357
  0
LINE
  8
0
 10
106.964
 20
13.0357
 11
106.964
 21
13.9642
  0
LINE
  8
0
 10
106.964
 20
13.9642
 11
106.982
 21
14
  0
LINE
  8
0
 10
106.982
 20
14
 11
106.99
 21
14.0098
  0
LINE
  8
0
 10
106.99
 20
14.0098
 11
107
 21
14.036
  0
LINE
  8
0
 10
107
 20
14.036
 11
107.072
 21
14.0721
  0
LINE
  8
0
 10
107.072
 20
14.0721
 11
107.928
 21
14.0721
  0
LINE
  8
0
 10
107.928
 20
14.0721
 11
107.928
 21
14.9279
  0
LINE
  8
0
 10
107.928
 20
14.9279
 11
107.964
 21
15
  0
LINE
  8
0
 10
107.964
 20
15
 11
107.986
 21
15.0137
  0
LINE
  8
0
 10
107.986
 20
15.0137
 11
108
 21
15.1292
  0
LINE
  8
0
 10
108
 20
15.1292
 11
108.258
 21
15.2583
  0
LINE
  8
0
 10
108.258
 20
15.2583
 11
108.742
 21
15.2583
  0
LINE
  8
0
 10
108.742
 20
15.2583
 11
108.742
 21
15.7417
  0
LINE
  8
0
 10
108.742
 20
15.7417
 11
108.871
 21
16
  0
LINE
  8
0
 10
108.871
 20
16
 11
108.976
 21
16.0244
  0
LINE
  8
0
 10
108.976
 20
16.0244
 11
108.976
 21
16.9756
  0
LINE
  8
0
 10
108.976
 20
16.9756
 11
108.987
 21
17
  0
LINE
  8
0
 10
108.987
 20
17
 11
108.991
 21
17.0094
  0
LINE
  8
0
 10
108.991
 20
17.0094
 11
109
 21
17.0446
  0
LINE
  8
0
 10
109
 20
17.0446
 11
109.089
 21
17.0891
  0
LINE
  8
0
 10
109.089
 20
17.0891
 11
109.911
 21
17.0891
  0
LINE
  8
0
 10
109.911
 20
17.0891
 11
109.911
 21
17.9109
  0
LINE
  8
0
 10
109.911
 20
17.9109
 11
109.955
 21
18
  0
LINE
  8
0
 10
109.955
 20
18
 11
109.981
 21
18.019
  0
LINE
  8
0
 10
109.981
 20
18.019
 11
109.993
 21
18.9931
  0
LINE
  8
0
 10
109.993
 20
18.9931
 11
109.996
 21
19
  0
LINE
  8
0
 10
109.996
 20
19
 11
109.997
 21
19.0033
  0
LINE
  8
0
 10
109.997
 20
19.0033
 11
110
 21
19.0196
  0
LINE
  8
0
 10
110
 20
19.0196
 11
110.042
 21
19.0423
  0
LINE
  8
0
 10
110.042
 20
19.0423
 11
110.897
 21
19.1033
  0
LINE
  8
0
 10
110.897
 20
19.1033
 11
110.897
 21
19.8967
  0
LINE
  8
0
 10
110.897
 20
19.8967
 11
110.947
 21
20
  0
LINE
  8
0
 10
110.947
 20
20
 11
110.976
 21
20.0241
  0
LINE
  8
0
 10
110.976
 20
20.0241
 11
110.976
 21
20.9759
  0
LINE
  8
0
 10
110.976
 20
20.9759
 11
110.984
 21
21
  0
LINE
  8
0
 10
110.984
 20
21
 11
110.988
 21
21.0118
  0
LINE
  8
0
 10
110.988
 20
21.0118
 11
111
 21
21.2583
  0
LINE
  8
0
 10
111
 20
21.2583
 11
111.494
 21
21.5056
  0
LINE
  8
0
 10
111.494
 20
21.5056
 11
111.742
 21
22
  0
LINE
  8
0
 10
111.742
 20
22
 11
111.934
 21
22.0659
  0
LINE
  8
0
 10
111.934
 20
22.0659
 11
111.934
 21
22.9341
  0
LINE
  8
0
 10
111.934
 20
22.9341
 11
111.962
 21
23
  0
LINE
  8
0
 10
111.962
 20
23
 11
111.976
 21
23.0237
  0
LINE
  8
0
 10
111.976
 20
23.0237
 11
111.976
 21
23.9763
  0
LINE
  8
0
 10
111.976
 20
23.9763
 11
111.983
 21
24
  0
LINE
  8
0
 10
111.983
 20
24
 11
111.986
 21
24.0135
  0
LINE
  8
0
 10
111.986
 20
24.0135
 11
111.995
 21
24.9951
  0
LINE
  8
0
 10
111.995
 20
24.9951
 11
111.996
 21
25
  0
LINE
  8
0
 10
111.996
 20
25
 11
111.996
 21
25.0035
  0
LINE
  8
0
 10
111.996
 20
25.0035
 11
112
 21
25.0458
  0
LINE
  8
0
 10
112
 20
25.0458
 11
112.11
 21
25.11
  0
LINE
  8
0
 10
112.11
 20
25.11
 11
112.779
 21
25.2214
  0
LINE
  8
0
 10
112.779
 20
25.2214
 11
112.779
 21
25.7786
  0
LINE
  8
0
 10
112.779
 20
25.7786
 11
112.881
 21
26
  0
LINE
  8
0
 10
112.881
 20
26
 11
112.938
 21
26.062
  0
LINE
  8
0
 10
112.938
 20
26.062
 11
112.938
 21
26.938
  0
LINE
  8
0
 10
112.938
 20
26.938
 11
112.958
 21
27
  0
LINE
  8
0
 10
112.958
 20
27
 11
112.971
 21
27.029
  0
LINE
  8
0
 10
112.971
 20
27.029
 11
112.971
 21
27.9709
  0
LINE
  8
0
 10
112.971
 20
27.9709
 11
112.978
 21
28
  0
LINE
  8
0
 10
112.978
 20
28
 11
112.982
 21
28.0182
  0
LINE
  8
0
 10
112.982
 20
28.0182
 11
112.982
 21
28.9818
  0
LINE
  8
0
 10
112.982
 20
28.9818
 11
112.985
 21
29
  0
LINE
  8
0
 10
112.985
 20
29
 11
112.987
 21
29.0129
  0
LINE
  8
0
 10
112.987
 20
29.0129
 11
112.987
 21
29.9871
  0
LINE
  8
0
 10
112.987
 20
29.9871
 11
112.989
 21
30
  0
LINE
  8
0
 10
112.989
 20
30
 11
113
 21
30.3875
  0
LINE
  8
0
 10
113
 20
30.3875
 11
113.408
 21
30.5917
  0
LINE
  8
0
 10
113.408
 20
30.5917
 11
113.613
 21
31
  0
LINE
  8
0
 10
113.613
 20
31
 11
113.779
 21
31.2214
  0
LINE
  8
0
 10
113.779
 20
31.2214
 11
113.779
 21
31.7786
  0
LINE
  8
0
 10
113.779
 20
31.7786
 11
113.845
 21
32
  0
LINE
  8
0
 10
113.845
 20
32
 11
113.905
 21
32.0945
  0
LINE
  8
0
 10
113.905
 20
32.0945
 11
113.905
 21
32.9054
  0
LINE
  8
0
 10
113.905
 20
32.9054
 11
113.932
 21
33
  0
LINE
  8
0
 10
113.932
 20
33
 11
113.944
 21
33.0558
  0
LINE
  8
0
 10
113.944
 20
33.0558
 11
113.944
 21
33.9441
  0
LINE
  8
0
 10
113.944
 20
33.9441
 11
113.953
 21
34
  0
LINE
  8
0
 10
113.953
 20
34
 11
113.959
 21
34.0409
  0
LINE
  8
0
 10
113.959
 20
34.0409
 11
113.959
 21
34.959
  0
LINE
  8
0
 10
113.959
 20
34.959
 11
113.964
 21
35
  0
LINE
  8
0
 10
113.964
 20
35
 11
113.97
 21
35.0296
  0
LINE
  8
0
 10
113.97
 20
35.0296
 11
113.97
 21
35.9704
  0
LINE
  8
0
 10
113.97
 20
35.9704
 11
113.975
 21
36
  0
LINE
  8
0
 10
113.975
 20
36
 11
113.976
 21
36.0237
  0
LINE
  8
0
 10
113.976
 20
36.0237
 11
113.976
 21
36.9762
  0
LINE
  8
0
 10
113.976
 20
36.9762
 11
113.977
 21
37
  0
LINE
  8
0
 10
113.977
 20
37
 11
113.982
 21
37.0181
  0
LINE
  8
0
 10
113.982
 20
37.0181
 11
113.982
 21
37.9819
  0
LINE
  8
0
 10
113.982
 20
37.9819
 11
113.985
 21
38
  0
LINE
  8
0
 10
113.985
 20
38
 11
113.986
 21
38.0139
  0
LINE
  8
0
 10
113.986
 20
38.0139
 11
113.986
 21
38.9861
  0
LINE
  8
0
 10
113.986
 20
38.9861
 11
113.987
 21
39
  0
LINE
  8
0
 10
113.987
 20
39
 11
113.988
 21
39.0124
  0
LINE
  8
0
 10
113.988
 20
39.0124
 11
113.988
 21
39.9876
  0
LINE
  8
0
 10
113.988
 20
39.9876
 11
113.988
 21
40
  0
LINE
  8
0
 10
113.988
 20
40
 11
113.989
 21
40.0112
  0
LINE
  8
0
 10
113.989
 20
40.0112
 11
114
 21
40.775
  0
LINE
  8
0
 10
114
 20
40.775
 11
114.15
 21
40.85
  0
LINE
  8
0
 10
114.15
 20
40.85
 11
114.225
 21
41
  0
LINE
  8
0
 10
114.225
 20
41
 11
114.602
 21
41.3981
  0
LINE
  8
0
 10
114.602
 20
41.3981
 11
114.602
 21
41.6019
  0
LINE
  8
0
 10
114.602
 20
41.6019
 11
114.732
 21
42
  0
LINE
  8
0
 10
114.732
 20
42
 11
114.835
 21
42.165
  0
LINE
  8
0
 10
114.835
 20
42.165
 11
114.835
 21
42.835
  0
LINE
  8
0
 10
114.835
 20
42.835
 11
114.881
 21
43
  0
LINE
  8
0
 10
114.881
 20
43
 11
114.909
 21
43.0912
  0
LINE
  8
0
 10
114.909
 20
43.0912
 11
114.909
 21
43.9088
  0
LINE
  8
0
 10
114.909
 20
43.9088
 11
114.926
 21
44
  0
LINE
  8
0
 10
114.926
 20
44
 11
114.935
 21
44.0646
  0
LINE
  8
0
 10
114.935
 20
44.0646
 11
114.935
 21
44.9354
  0
LINE
  8
0
 10
114.935
 20
44.9354
 11
114.943
 21
45
  0
LINE
  8
0
 10
114.943
 20
45
 11
114.956
 21
45.0443
  0
LINE
  8
0
 10
114.956
 20
45.0443
 11
114.956
 21
45.9557
  0
LINE
  8
0
 10
114.956
 20
45.9557
 11
114.964
 21
46
  0
LINE
  8
0
 10
114.964
 20
46
 11
114.967
 21
46.033
  0
LINE
  8
0
 10
114.967
 20
46.033
 11
114.967
 21
46.967
  0
LINE
  8
0
 10
114.967
 20
46.967
 11
114.97
 21
47
  0
LINE
  8
0
 10
114.97
 20
47
 11
114.973
 21
47.0268
  0
LINE
  8
0
 10
114.973
 20
47.0268
 11
114.973
 21
47.9732
  0
LINE
  8
0
 10
114.973
 20
47.9732
 11
114.976
 21
48
  0
LINE
  8
0
 10
114.976
 20
48
 11
114.98
 21
48.0203
  0
LINE
  8
0
 10
114.98
 20
48.0203
 11
114.98
 21
48.9797
  0
LINE
  8
0
 10
114.98
 20
48.9797
 11
114.982
 21
49
  0
LINE
  8
0
 10
114.982
 20
49
 11
114.983
 21
49.0172
  0
LINE
  8
0
 10
114.983
 20
49.0172
 11
114.983
 21
49.9828
  0
LINE
  8
0
 10
114.983
 20
49.9828
 11
114.983
 21
50
  0
LINE
  8
0
 10
114.983
 20
50
 11
114.986
 21
50.0144
  0
LINE
  8
0
 10
114.986
 20
50.0144
 11
114.986
 21
50.9856
  0
LINE
  8
0
 10
114.986
 20
50.9856
 11
114.987
 21
51
  0
LINE
  8
0
 10
114.987
 20
51
 11
114.988
 21
51.0117
  0
LINE
  8
0
 10
114.988
 20
51.0117
 11
114.996
 21
51.9958
  0
LINE
  8
0
 10
114.996
 20
51.9958
 11
114.996
 21
52
  0
LINE
  8
0
 10
114.996
 20
52
 11
114.996
 21
52.0039
  0
LINE
  8
0
 10
114.996
 20
52.0039
 11
114.996
 21
52.9961
  0
LINE
  8
0
 10
114.996
 20
52.9961
 11
114.996
 21
53
  0
LINE
  8
0
 10
114.996
 20
53
 11
114.996
 21
53.0037
  0
LINE
  8
0
 10
114.996
 20
53.0037
 11
115
 21
53.11
  0
LINE
  8
0
 10
115
 20
53.11
 11
115.367
 21
53.3667
  0
LINE
  8
0
 10
115.367
 20
53.3667
 11
115.557
 21
53.4429
  0
LINE
  8
0
 10
115.557
 20
53.4429
 11
115.557
 21
53.5571
  0
LINE
  8
0
 10
115.557
 20
53.5571
 11
115.818
 21
54.1823
  0
LINE
  8
0
 10
115.818
 20
54.1823
 11
115.818
 21
54.8176
  0
LINE
  8
0
 10
115.818
 20
54.8176
 11
115.859
 21
55
  0
LINE
  8
0
 10
115.859
 20
55
 11
115.888
 21
55.1118
  0
LINE
  8
0
 10
115.888
 20
55.1118
 11
115.888
 21
55.8881
  0
LINE
  8
0
 10
115.888
 20
55.8881
 11
115.907
 21
56
  0
LINE
  8
0
 10
115.907
 20
56
 11
115.932
 21
56.0682
  0
LINE
  8
0
 10
115.932
 20
56.0682
 11
115.932
 21
56.9318
  0
LINE
  8
0
 10
115.932
 20
56.9318
 11
115.946
 21
57
  0
LINE
  8
0
 10
115.946
 20
57
 11
115.95
 21
57.0496
  0
LINE
  8
0
 10
115.95
 20
57.0496
 11
115.95
 21
57.9504
  0
LINE
  8
0
 10
115.95
 20
57.9504
 11
115.954
 21
58
  0
LINE
  8
0
 10
115.954
 20
58
 11
115.957
 21
58.0432
  0
LINE
  8
0
 10
115.957
 20
58.0432
 11
115.957
 21
58.9568
  0
LINE
  8
0
 10
115.957
 20
58.9568
 11
115.959
 21
59
  0
LINE
  8
0
 10
115.959
 20
59
 11
115.966
 21
59.0339
  0
LINE
  8
0
 10
115.966
 20
59.0339
 11
115.966
 21
59.9661
  0
LINE
  8
0
 10
115.966
 20
59.9661
 11
115.971
 21
60
  0
LINE
  8
0
 10
115.971
 20
60
 11
115.974
 21
60.026
  0
LINE
  8
0
 10
115.974
 20
60.026
 11
115.974
 21
60.974
  0
LINE
  8
0
 10
115.974
 20
60.974
 11
115.976
 21
61
  0
LINE
  8
0
 10
115.976
 20
61
 11
115.977
 21
61.0227
  0
LINE
  8
0
 10
115.977
 20
61.0227
 11
115.977
 21
61.9773
  0
LINE
  8
0
 10
115.977
 20
61.9773
 11
115.978
 21
62
  0
LINE
  8
0
 10
115.978
 20
62
 11
115.98
 21
62.0205
  0
LINE
  8
0
 10
115.98
 20
62.0205
 11
115.98
 21
62.9795
  0
LINE
  8
0
 10
115.98
 20
62.9795
 11
115.981
 21
63
  0
LINE
  8
0
 10
115.981
 20
63
 11
115.985
 21
63.0152
  0
LINE
  8
0
 10
115.985
 20
63.0152
 11
115.985
 21
63.9848
  0
LINE
  8
0
 10
115.985
 20
63.9848
 11
115.987
 21
64
  0
LINE
  8
0
 10
115.987
 20
64
 11
115.988
 21
64.0124
  0
LINE
  8
0
 10
115.988
 20
64.0124
 11
115.988
 21
64.9876
  0
LINE
  8
0
 10
115.988
 20
64.9876
 11
115.988
 21
65.0121
  0
LINE
  8
0
 10
115.988
 20
65.0121
 11
115.988
 21
65.9879
  0
LINE
  8
0
 10
115.988
 20
65.9879
 11
115.988
 21
66
  0
LINE
  8
0
 10
115.988
 20
66
 11
115.989
 21
66.0114
  0
LINE
  8
0
 10
115.989
 20
66.0114
 11
115.996
 21
66.9959
  0
LINE
  8
0
 10
115.996
 20
66.9959
 11
115.996
 21
67.0038
  0
LINE
  8
0
 10
115.996
 20
67.0038
 11
116
 21
67.1833
  0
LINE
  8
0
 10
116
 20
67.1833
 11
116.445
 21
67.5545
  0
LINE
  8
0
 10
116.445
 20
67.5545
 11
116.718
 21
68.2818
  0
LINE
  8
0
 10
116.718
 20
68.2818
 11
116.718
 21
68.7182
  0
LINE
  8
0
 10
116.718
 20
68.7182
 11
116.779
 21
69
  0
LINE
  8
0
 10
116.779
 20
69
 11
116.845
 21
69.155
  0
LINE
  8
0
 10
116.845
 20
69.155
 11
116.845
 21
69.845
  0
LINE
  8
0
 10
116.845
 20
69.845
 11
116.881
 21
70
  0
LINE
  8
0
 10
116.881
 20
70
 11
116.909
 21
70.0912
  0
LINE
  8
0
 10
116.909
 20
70.0912
 11
116.909
 21
70.9088
  0
LINE
  8
0
 10
116.909
 20
70.9088
 11
116.926
 21
71
  0
LINE
  8
0
 10
116.926
 20
71
 11
116.934
 21
71.0663
  0
LINE
  8
0
 10
116.934
 20
71.0663
 11
116.934
 21
71.9337
  0
LINE
  8
0
 10
116.934
 20
71.9337
 11
116.94
 21
72
  0
LINE
  8
0
 10
116.94
 20
72
 11
116.944
 21
72.0556
  0
LINE
  8
0
 10
116.944
 20
72.0556
 11
116.944
 21
72.9444
  0
LINE
  8
0
 10
116.944
 20
72.9444
 11
116.948
 21
73
  0
LINE
  8
0
 10
116.948
 20
73
 11
116.958
 21
73.0425
  0
LINE
  8
0
 10
116.958
 20
73.0425
 11
116.958
 21
73.9575
  0
LINE
  8
0
 10
116.958
 20
73.9575
 11
116.964
 21
74
  0
LINE
  8
0
 10
116.964
 20
74
 11
116.967
 21
74.0333
  0
LINE
  8
0
 10
116.967
 20
74.0333
 11
116.967
 21
74.9667
  0
LINE
  8
0
 10
116.967
 20
74.9667
 11
116.969
 21
75
  0
LINE
  8
0
 10
116.969
 20
75
 11
116.97
 21
75.0296
  0
LINE
  8
0
 10
116.97
 20
75.0296
 11
116.97
 21
75.9704
  0
LINE
  8
0
 10
116.97
 20
75.9704
 11
116.972
 21
76
  0
LINE
  8
0
 10
116.972
 20
76
 11
116.976
 21
76.0245
  0
LINE
  8
0
 10
116.976
 20
76.0245
 11
116.976
 21
76.9755
  0
LINE
  8
0
 10
116.976
 20
76.9755
 11
116.981
 21
77.0193
  0
LINE
  8
0
 10
116.981
 20
77.0193
 11
116.981
 21
77.9807
  0
LINE
  8
0
 10
116.981
 20
77.9807
 11
116.983
 21
78
  0
LINE
  8
0
 10
116.983
 20
78
 11
116.983
 21
78.017
  0
LINE
  8
0
 10
116.983
 20
78.017
 11
116.983
 21
78.983
  0
LINE
  8
0
 10
116.983
 20
78.983
 11
116.983
 21
79
  0
LINE
  8
0
 10
116.983
 20
79
 11
116.984
 21
79.016
  0
LINE
  8
0
 10
116.984
 20
79.016
 11
116.984
 21
79.984
  0
LINE
  8
0
 10
116.984
 20
79.984
 11
116.985
 21
80
  0
LINE
  8
0
 10
116.985
 20
80
 11
116.987
 21
80.0132
  0
LINE
  8
0
 10
116.987
 20
80.0132
 11
116.987
 21
80.9868
  0
LINE
  8
0
 10
116.987
 20
80.9868
 11
116.988
 21
81
  0
LINE
  8
0
 10
116.988
 20
81
 11
116.989
 21
81.0114
  0
LINE
  8
0
 10
116.989
 20
81.0114
 11
116.996
 21
82
  0
LINE
  8
0
 10
116.996
 20
82
 11
116.996
 21
82.004
  0
LINE
  8
0
 10
116.996
 20
82.004
 11
117
 21
82.55
  0
LINE
  8
0
 10
117
 20
82.55
 11
117.18
 21
82.82
  0
LINE
  8
0
 10
117.18
 20
82.82
 11
117.225
 21
83
  0
LINE
  8
0
 10
117.225
 20
83
 11
117.225
 21
84
  0
LINE
  8
0
 10
117.225
 20
84
 11
117.3
 21
84.3
  0
LINE
  8
0
 10
117.3
 20
84.3
 11
117.414
 21
84.5857
  0
LINE
  8
0
 10
117.414
 20
84.5857
 11
117.483
 21
85
  0
LINE
  8
0
 10
117.483
 20
85
 11
117.656
 21
85.3444
  0
LINE
  8
0
 10
117.656
 20
85.3444
 11
117.656
 21
85.6555
  0
LINE
  8
0
 10
117.656
 20
85.6555
 11
117.742
 21
86
  0
LINE
  8
0
 10
117.742
 20
86
 11
117.806
 21
86.1937
  0
LINE
  8
0
 10
117.806
 20
86.1937
 11
117.806
 21
86.8062
  0
LINE
  8
0
 10
117.806
 20
86.8062
 11
117.845
 21
87
  0
LINE
  8
0
 10
117.845
 20
87
 11
117.859
 21
87.1409
  0
LINE
  8
0
 10
117.859
 20
87.1409
 11
117.859
 21
87.8591
  0
LINE
  8
0
 10
117.859
 20
87.8591
 11
117.871
 21
88
  0
LINE
  8
0
 10
117.871
 20
88
 11
117.881
 21
88.1189
  0
LINE
  8
0
 10
117.881
 20
88.1189
 11
117.881
 21
88.8811
  0
LINE
  8
0
 10
117.881
 20
88.8811
 11
117.89
 21
89
  0
LINE
  8
0
 10
117.89
 20
89
 11
117.9
 21
89.0998
  0
LINE
  8
0
 10
117.9
 20
89.0998
 11
117.9
 21
89.9002
  0
LINE
  8
0
 10
117.9
 20
89.9002
 11
117.909
 21
90
  0
LINE
  8
0
 10
117.909
 20
90
 11
117.916
 21
90.0844
  0
LINE
  8
0
 10
117.916
 20
90.0844
 11
117.916
 21
90.9156
  0
LINE
  8
0
 10
117.916
 20
90.9156
 11
117.921
 21
91
  0
LINE
  8
0
 10
117.921
 20
91
 11
117.936
 21
91.0636
  0
LINE
  8
0
 10
117.936
 20
91.0636
 11
117.936
 21
91.9364
  0
LINE
  8
0
 10
117.936
 20
91.9364
 11
117.947
 21
92
  0
LINE
  8
0
 10
117.947
 20
92
 11
117.95
 21
92.05
  0
LINE
  8
0
 10
117.95
 20
92.05
 11
117.95
 21
92.95
  0
LINE
  8
0
 10
117.95
 20
92.95
 11
117.953
 21
93
  0
LINE
  8
0
 10
117.953
 20
93
 11
117.955
 21
93.0449
  0
LINE
  8
0
 10
117.955
 20
93.0449
 11
117.955
 21
93.9551
  0
LINE
  8
0
 10
117.955
 20
93.9551
 11
117.959
 21
94.0413
  0
LINE
  8
0
 10
117.959
 20
94.0413
 11
117.959
 21
94.9587
  0
LINE
  8
0
 10
117.959
 20
94.9587
 11
117.96
 21
95
  0
LINE
  8
0
 10
117.96
 20
95
 11
117.961
 21
95.0387
  0
LINE
  8
0
 10
117.961
 20
95.0387
 11
117.961
 21
95.9613
  0
LINE
  8
0
 10
117.961
 20
95.9613
 11
117.962
 21
96
  0
LINE
  8
0
 10
117.962
 20
96
 11
117.963
 21
96.0368
  0
LINE
  8
0
 10
117.963
 20
96.0368
 11
117.963
 21
96.9632
  0
LINE
  8
0
 10
117.963
 20
96.9632
 11
117.964
 21
97
  0
LINE
  8
0
 10
117.964
 20
97
 11
117.97
 21
97.0298
  0
LINE
  8
0
 10
117.97
 20
97.0298
 11
117.97
 21
97.9702
  0
LINE
  8
0
 10
117.97
 20
97.9702
 11
117.975
 21
98
  0
LINE
  8
0
 10
117.975
 20
98
 11
117.976
 21
98.0244
  0
LINE
  8
0
 10
117.976
 20
98.0244
 11
117.976
 21
98.9756
  0
LINE
  8
0
 10
117.976
 20
98.9756
 11
117.977
 21
99
  0
LINE
  8
0
 10
117.977
 20
99
 11
117.977
 21
99.0228
  0
LINE
  8
0
 10
117.977
 20
99.0228
 11
117.977
 21
99.9772
  0
LINE
  8
0
 10
117.977
 20
99.9772
 11
117.978
 21
100
  0
LINE
  8
0
 10
117.978
 20
100
 11
117.978
 21
100.022
  0
LINE
  8
0
 10
117.978
 20
100.022
 11
117.978
 21
100.978
  0
LINE
  8
0
 10
117.978
 20
100.978
 11
117.978
 21
101
  0
LINE
  8
0
 10
117.978
 20
101
 11
117.979
 21
101.021
  0
LINE
  8
0
 10
117.979
 20
101.021
 11
117.979
 21
101.979
  0
LINE
  8
0
 10
117.979
 20
101.979
 11
117.979
 21
102
  0
LINE
  8
0
 10
117.979
 20
102
 11
117.979
 21
102.021
  0
LINE
  8
0
 10
117.979
 20
102.021
 11
117.979
 21
102.979
  0
LINE
  8
0
 10
117.979
 20
102.979
 11
117.98
 21
103
  0
LINE
  8
0
 10
117.98
 20
103
 11
117.98
 21
103.02
  0
LINE
  8
0
 10
117.98
 20
103.02
 11
117.98
 21
103.98
  0
LINE
  8
0
 10
117.98
 20
103.98
 11
117.98
 21
104
  0
LINE
  8
0
 10
117.98
 20
104
 11
117.983
 21
104.017
  0
LINE
  8
0
 10
117.983
 20
104.017
 11
117.983
 21
104.983
  0
LINE
  8
0
 10
117.983
 20
104.983
 11
117.985
 21
105
  0
LINE
  8
0
 10
117.985
 20
105
 11
117.986
 21
105.014
  0
LINE
  8
0
 10
117.986
 20
105.014
 11
117.986
 21
105.986
  0
LINE
  8
0
 10
117.986
 20
105.986
 11
117.988
 21
106
  0
LINE
  8
0
 10
117.988
 20
106
 11
117.988
 21
106.012
  0
LINE
  8
0
 10
117.988
 20
106.012
 11
117.988
 21
106.988
  0
LINE
  8
0
 10
117.988
 20
106.988
 11
117.988
 21
107
  0
LINE
  8
0
 10
117.988
 20
107
 11
117.988
 21
107.012
  0
LINE
  8
0
 10
117.988
 20
107.012
 11
117.988
 21
107.988
  0
LINE
  8
0
 10
117.988
 20
107.988
 11
117.988
 21
108.012
  0
LINE
  8
0
 10
117.988
 20
108.012
 11
117.988
 21
108.988
  0
LINE
  8
0
 10
117.988
 20
108.988
 11
117.988
 21
109
  0
LINE
  8
0
 10
117.988
 20
109
 11
117.988
 21
109.012
  0
LINE
  8
0
 10
117.988
 20
109.012
 11
117.988
 21
109.988
  0
LINE
  8
0
 10
117.988
 20
109.988
 11
117.988
 21
110.012
  0
LINE
  8
0
 10
117.988
 20
110.012
 11
117.988
 21
110.988
  0
LINE
  8
0
 10
117.988
 20
110.988
 11
117.988
 21
111
  0
LINE
  8
0
 10
117.988
 20
111
 11
117.988
 21
112
  0
LINE
  8
0
 10
117.988
 20
112
 11
117.988
 21
112.012
  0
LINE
  8
0
 10
117.988
 20
112.012
 11
117.988
 21
112.988
  0
LINE
  8
0
 10
117.988
 20
112.988
 11
117.989
 21
113.011
  0
LINE
  8
0
 10
117.989
 20
113.011
 11
117.989
 21
113.989
  0
LINE
  8
0
 10
117.989
 20
113.989
 11
117.989
 21
114
  0
LINE
  8
0
 10
117.989
 20
114
 11
117.989
 21
114.011
  0
LINE
  8
0
 10
117.989
 20
114.011
 11
117.989
 21
114.989
  0
LINE
  8
0
 10
117.989
 20
114.989
 11
117.989
 21
115.011
  0
LINE
  8
0
 10
117.989
 20
115.011
 11
117.989
 21
115.989
  0
LINE
  8
0
 10
117.989
 20
115.989
 11
117.989
 21
116
  0
LINE
  8
0
 10
117.989
 20
116
 11
117.989
 21
116.011
  0
LINE
  8
0
 10
117.989
 20
116.011
 11
117.996
 21
116.996
  0
LINE
  8
0
 10
117.996
 20
116.996
 11
117.996
 21
117
  0
LINE
  8
0
 10
117.996
 20
117
 11
117.996
 21
117.004
  0
LINE
  8
0
 10
117.996
 20
117.004
 11
118
 21
117.55
  0
LINE
  8
0
 10
118
 20
117.55
 11
118.18
 21
117.82
  0
LINE
  8
0
 10
118.18
 20
117.82
 11
118.3
 21
118.3
  0
LINE
  8
0
 10
118.3
 20
118.3
 11
118.414
 21
118.586
  0
LINE
  8
0
 10
118.414
 20
118.586
 11
118.483
 21
119
  0
LINE
  8
0
 10
118.483
 20
119
 11
118.483
 21
120
  0
LINE
  8
0
 10
118.483
 20
120
 11
118.557
 21
120.443
  0
LINE
  8
0
 10
118.557
 20
120.443
 11
118.557
 21
120.557
  0
LINE
  8
0
 10
118.557
 20
120.557
 11
118.656
 21
121.344
  0
LINE
  8
0
 10
118.656
 20
121.344
 11
118.656
 21
121.656
  0
LINE
  8
0
 10
118.656
 20
121.656
 11
118.69
 21
122
  0
LINE
  8
0
 10
118.69
 20
122
 11
118.69
 21
123
  0
LINE
  8
0
 10
118.69
 20
123
 11
118.718
 21
123.282
  0
LINE
  8
0
 10
118.718
 20
123.282
 11
118.718
 21
123.718
  0
LINE
  8
0
 10
118.718
 20
123.718
 11
118.742
 21
124
  0
LINE
  8
0
 10
118.742
 20
124
 11
118.742
 21
125
  0
LINE
  8
0
 10
118.742
 20
125
 11
118.762
 21
125.238
  0
LINE
  8
0
 10
118.762
 20
125.238
 11
118.762
 21
125.762
  0
LINE
  8
0
 10
118.762
 20
125.762
 11
118.779
 21
126
  0
LINE
  8
0
 10
118.779
 20
126
 11
118.779
 21
127
  0
LINE
  8
0
 10
118.779
 20
127
 11
118.79
 21
127.21
  0
LINE
  8
0
 10
118.79
 20
127.21
 11
118.79
 21
127.79
  0
LINE
  8
0
 10
118.79
 20
127.79
 11
118.801
 21
128
  0
LINE
  8
0
 10
118.801
 20
128
 11
118.804
 21
128.196
  0
LINE
  8
0
 10
118.804
 20
128.196
 11
118.804
 21
128.804
  0
LINE
  8
0
 10
118.804
 20
128.804
 11
118.806
 21
129
  0
LINE
  8
0
 10
118.806
 20
129
 11
118.806
 21
138
  0
LINE
  8
0
 10
118.806
 20
138
 11
118.793
 21
138.207
  0
LINE
  8
0
 10
118.793
 20
138.207
 11
118.793
 21
138.793
  0
LINE
  8
0
 10
118.793
 20
138.793
 11
118.779
 21
139
  0
LINE
  8
0
 10
118.779
 20
139
 11
118.793
 21
139.207
  0
LINE
  8
0
 10
118.793
 20
139.207
 11
118.793
 21
139.793
  0
LINE
  8
0
 10
118.793
 20
139.793
 11
118.806
 21
140
  0
LINE
  8
0
 10
118.806
 20
140
 11
118.793
 21
140.207
  0
LINE
  8
0
 10
118.793
 20
140.207
 11
118.793
 21
140.793
  0
LINE
  8
0
 10
118.793
 20
140.793
 11
118.779
 21
141
  0
LINE
  8
0
 10
118.779
 20
141
 11
118.779
 21
142
  0
LINE
  8
0
 10
118.779
 20
142
 11
118.763
 21
142.237
  0
LINE
  8
0
 10
118.763
 20
142.237
 11
118.763
 21
142.763
  0
LINE
  8
0
 10
118.763
 20
142.763
 11
118.745
 21
143
  0
LINE
  8
0
 10
118.745
 20
143
 11
118.743
 21
143.257
  0
LINE
  8
0
 10
118.743
 20
143.257
 11
118.743
 21
143.743
  0
LINE
  8
0
 10
118.743
 20
143.743
 11
118.742
 21
144
  0
LINE
  8
0
 10
118.742
 20
144
 11
118.742
 21
145
  0
LINE
  8
0
 10
118.742
 20
145
 11
118.718
 21
145.282
  0
LINE
  8
0
 10
118.718
 20
145.282
 11
118.718
 21
145.718
  0
LINE
  8
0
 10
118.718
 20
145.718
 11
118.69
 21
146
  0
LINE
  8
0
 10
118.69
 20
146
 11
118.69
 21
147
  0
LINE
  8
0
 10
118.69
 20
147
 11
118.656
 21
147.344
  0
LINE
  8
0
 10
118.656
 20
147.344
 11
118.656
 21
147.656
  0
LINE
  8
0
 10
118.656
 20
147.656
 11
118.613
 21
148
  0
LINE
  8
0
 10
118.613
 20
148
 11
118.613
 21
149
  0
LINE
  8
0
 10
118.613
 20
149
 11
118.557
 21
149.443
  0
LINE
  8
0
 10
118.557
 20
149.443
 11
118.557
 21
149.557
  0
LINE
  8
0
 10
118.557
 20
149.557
 11
118.483
 21
150
  0
LINE
  8
0
 10
118.483
 20
150
 11
118.483
 21
151
  0
LINE
  8
0
 10
118.483
 20
151
 11
118.414
 21
151.414
  0
LINE
  8
0
 10
118.414
 20
151.414
 11
118.3
 21
151.7
  0
LINE
  8
0
 10
118.3
 20
151.7
 11
118.18
 21
152.18
  0
LINE
  8
0
 10
118.18
 20
152.18
 11
118
 21
152.45
  0
LINE
  8
0
 10
118
 20
152.45
 11
117.996
 21
152.996
  0
LINE
  8
0
 10
117.996
 20
152.996
 11
117.996
 21
153.004
  0
LINE
  8
0
 10
117.996
 20
153.004
 11
117.988
 21
154
  0
LINE
  8
0
 10
117.988
 20
154
 11
117.988
 21
154.012
  0
LINE
  8
0
 10
117.988
 20
154.012
 11
117.988
 21
154.988
  0
LINE
  8
0
 10
117.988
 20
154.988
 11
117.988
 21
155
  0
LINE
  8
0
 10
117.988
 20
155
 11
117.988
 21
156
  0
LINE
  8
0
 10
117.988
 20
156
 11
117.988
 21
156.012
  0
LINE
  8
0
 10
117.988
 20
156.012
 11
117.988
 21
156.988
  0
LINE
  8
0
 10
117.988
 20
156.988
 11
117.988
 21
157.012
  0
LINE
  8
0
 10
117.988
 20
157.012
 11
117.988
 21
157.988
  0
LINE
  8
0
 10
117.988
 20
157.988
 11
117.988
 21
158
  0
LINE
  8
0
 10
117.988
 20
158
 11
117.988
 21
158.012
  0
LINE
  8
0
 10
117.988
 20
158.012
 11
117.988
 21
158.988
  0
LINE
  8
0
 10
117.988
 20
158.988
 11
117.988
 21
159
  0
LINE
  8
0
 10
117.988
 20
159
 11
117.988
 21
159.012
  0
LINE
  8
0
 10
117.988
 20
159.012
 11
117.988
 21
159.988
  0
LINE
  8
0
 10
117.988
 20
159.988
 11
117.988
 21
160
  0
LINE
  8
0
 10
117.988
 20
160
 11
117.987
 21
160.013
  0
LINE
  8
0
 10
117.987
 20
160.013
 11
117.987
 21
160.987
  0
LINE
  8
0
 10
117.987
 20
160.987
 11
117.986
 21
161
  0
LINE
  8
0
 10
117.986
 20
161
 11
117.984
 21
161.016
  0
LINE
  8
0
 10
117.984
 20
161.016
 11
117.984
 21
161.984
  0
LINE
  8
0
 10
117.984
 20
161.984
 11
117.981
 21
162
  0
LINE
  8
0
 10
117.981
 20
162
 11
117.981
 21
162.019
  0
LINE
  8
0
 10
117.981
 20
162.019
 11
117.981
 21
162.981
  0
LINE
  8
0
 10
117.981
 20
162.981
 11
117.98
 21
163
  0
LINE
  8
0
 10
117.98
 20
163
 11
117.98
 21
163.02
  0
LINE
  8
0
 10
117.98
 20
163.02
 11
117.98
 21
163.98
  0
LINE
  8
0
 10
117.98
 20
163.98
 11
117.98
 21
164
  0
LINE
  8
0
 10
117.98
 20
164
 11
117.979
 21
164.021
  0
LINE
  8
0
 10
117.979
 20
164.021
 11
117.979
 21
164.979
  0
LINE
  8
0
 10
117.979
 20
164.979
 11
117.979
 21
165
  0
LINE
  8
0
 10
117.979
 20
165
 11
117.979
 21
165.021
  0
LINE
  8
0
 10
117.979
 20
165.021
 11
117.979
 21
165.979
  0
LINE
  8
0
 10
117.979
 20
165.979
 11
117.978
 21
166
  0
LINE
  8
0
 10
117.978
 20
166
 11
117.978
 21
166.022
  0
LINE
  8
0
 10
117.978
 20
166.022
 11
117.978
 21
166.978
  0
LINE
  8
0
 10
117.978
 20
166.978
 11
117.977
 21
167
  0
LINE
  8
0
 10
117.977
 20
167
 11
117.977
 21
167.023
  0
LINE
  8
0
 10
117.977
 20
167.023
 11
117.977
 21
167.977
  0
LINE
  8
0
 10
117.977
 20
167.977
 11
117.977
 21
168
  0
LINE
  8
0
 10
117.977
 20
168
 11
117.976
 21
168.024
  0
LINE
  8
0
 10
117.976
 20
168.024
 11
117.976
 21
168.976
  0
LINE
  8
0
 10
117.976
 20
168.976
 11
117.975
 21
169
  0
LINE
  8
0
 10
117.975
 20
169
 11
117.971
 21
169.029
  0
LINE
  8
0
 10
117.971
 20
169.029
 11
117.971
 21
169.971
  0
LINE
  8
0
 10
117.971
 20
169.971
 11
117.966
 21
170
  0
LINE
  8
0
 10
117.966
 20
170
 11
117.965
 21
170.035
  0
LINE
  8
0
 10
117.965
 20
170.035
 11
117.965
 21
170.965
  0
LINE
  8
0
 10
117.965
 20
170.965
 11
117.963
 21
171.037
  0
LINE
  8
0
 10
117.963
 20
171.037
 11
117.963
 21
171.963
  0
LINE
  8
0
 10
117.963
 20
171.963
 11
117.962
 21
172
  0
LINE
  8
0
 10
117.962
 20
172
 11
117.961
 21
172.039
  0
LINE
  8
0
 10
117.961
 20
172.039
 11
117.961
 21
172.961
  0
LINE
  8
0
 10
117.961
 20
172.961
 11
117.96
 21
173
  0
LINE
  8
0
 10
117.96
 20
173
 11
117.959
 21
173.041
  0
LINE
  8
0
 10
117.959
 20
173.041
 11
117.959
 21
173.959
  0
LINE
  8
0
 10
117.959
 20
173.959
 11
117.957
 21
174
  0
LINE
  8
0
 10
117.957
 20
174
 11
117.956
 21
174.044
  0
LINE
  8
0
 10
117.956
 20
174.044
 11
117.956
 21
174.956
  0
LINE
  8
0
 10
117.956
 20
174.956
 11
117.954
 21
175
  0
LINE
  8
0
 10
117.954
 20
175
 11
117.952
 21
175.048
  0
LINE
  8
0
 10
117.952
 20
175.048
 11
117.952
 21
175.952
  0
LINE
  8
0
 10
117.952
 20
175.952
 11
117.95
 21
176
  0
LINE
  8
0
 10
117.95
 20
176
 11
117.94
 21
176.06
  0
LINE
  8
0
 10
117.94
 20
176.06
 11
117.94
 21
176.94
  0
LINE
  8
0
 10
117.94
 20
176.94
 11
117.925
 21
177
  0
LINE
  8
0
 10
117.925
 20
177
 11
117.922
 21
177.078
  0
LINE
  8
0
 10
117.922
 20
177.078
 11
117.922
 21
177.922
  0
LINE
  8
0
 10
117.922
 20
177.922
 11
117.913
 21
178.087
  0
LINE
  8
0
 10
117.913
 20
178.087
 11
117.913
 21
178.913
  0
LINE
  8
0
 10
117.913
 20
178.913
 11
117.908
 21
179
  0
LINE
  8
0
 10
117.908
 20
179
 11
117.899
 21
179.101
  0
LINE
  8
0
 10
117.899
 20
179.101
 11
117.899
 21
179.899
  0
LINE
  8
0
 10
117.899
 20
179.899
 11
117.889
 21
180
  0
LINE
  8
0
 10
117.889
 20
180
 11
117.881
 21
180.119
  0
LINE
  8
0
 10
117.881
 20
180.119
 11
117.881
 21
180.881
  0
LINE
  8
0
 10
117.881
 20
180.881
 11
117.871
 21
181
  0
LINE
  8
0
 10
117.871
 20
181
 11
117.852
 21
181.148
  0
LINE
  8
0
 10
117.852
 20
181.148
 11
117.852
 21
181.852
  0
LINE
  8
0
 10
117.852
 20
181.852
 11
117.828
 21
182
  0
LINE
  8
0
 10
117.828
 20
182
 11
117.789
 21
182.211
  0
LINE
  8
0
 10
117.789
 20
182.211
 11
117.789
 21
182.789
  0
LINE
  8
0
 10
117.789
 20
182.789
 11
117.729
 21
183
  0
LINE
  8
0
 10
117.729
 20
183
 11
117.644
 21
183.356
  0
LINE
  8
0
 10
117.644
 20
183.356
 11
117.644
 21
183.644
  0
LINE
  8
0
 10
117.644
 20
183.644
 11
117.483
 21
184
  0
LINE
  8
0
 10
117.483
 20
184
 11
117.414
 21
184.414
  0
LINE
  8
0
 10
117.414
 20
184.414
 11
117.3
 21
184.7
  0
LINE
  8
0
 10
117.3
 20
184.7
 11
117.18
 21
185.18
  0
LINE
  8
0
 10
117.18
 20
185.18
 11
117
 21
185.45
  0
LINE
  8
0
 10
117
 20
185.45
 11
116.996
 21
185.996
  0
LINE
  8
0
 10
116.996
 20
185.996
 11
116.996
 21
186.004
  0
LINE
  8
0
 10
116.996
 20
186.004
 11
116.996
 21
186.996
  0
LINE
  8
0
 10
116.996
 20
186.996
 11
116.996
 21
187
  0
LINE
  8
0
 10
116.996
 20
187
 11
116.995
 21
187.005
  0
LINE
  8
0
 10
116.995
 20
187.005
 11
116.988
 21
187.988
  0
LINE
  8
0
 10
116.988
 20
187.988
 11
116.986
 21
188
  0
LINE
  8
0
 10
116.986
 20
188
 11
116.985
 21
188.015
  0
LINE
  8
0
 10
116.985
 20
188.015
 11
116.985
 21
188.985
  0
LINE
  8
0
 10
116.985
 20
188.985
 11
116.984
 21
189
  0
LINE
  8
0
 10
116.984
 20
189
 11
116.983
 21
189.017
  0
LINE
  8
0
 10
116.983
 20
189.017
 11
116.983
 21
189.983
  0
LINE
  8
0
 10
116.983
 20
189.983
 11
116.983
 21
190.017
  0
LINE
  8
0
 10
116.983
 20
190.017
 11
116.983
 21
190.983
  0
LINE
  8
0
 10
116.983
 20
190.983
 11
116.982
 21
191
  0
LINE
  8
0
 10
116.982
 20
191
 11
116.98
 21
191.02
  0
LINE
  8
0
 10
116.98
 20
191.02
 11
116.98
 21
191.98
  0
LINE
  8
0
 10
116.98
 20
191.98
 11
116.977
 21
192
  0
LINE
  8
0
 10
116.977
 20
192
 11
116.975
 21
192.025
  0
LINE
  8
0
 10
116.975
 20
192.025
 11
116.975
 21
192.975
  0
LINE
  8
0
 10
116.975
 20
192.975
 11
116.972
 21
193
  0
LINE
  8
0
 10
116.972
 20
193
 11
116.971
 21
193.029
  0
LINE
  8
0
 10
116.971
 20
193.029
 11
116.971
 21
193.971
  0
LINE
  8
0
 10
116.971
 20
193.971
 11
116.97
 21
194
  0
LINE
  8
0
 10
116.97
 20
194
 11
116.969
 21
194.031
  0
LINE
  8
0
 10
116.969
 20
194.031
 11
116.969
 21
194.969
  0
LINE
  8
0
 10
116.969
 20
194.969
 11
116.968
 21
195
  0
LINE
  8
0
 10
116.968
 20
195
 11
116.963
 21
195.037
  0
LINE
  8
0
 10
116.963
 20
195.037
 11
116.963
 21
195.963
  0
LINE
  8
0
 10
116.963
 20
195.963
 11
116.957
 21
196
  0
LINE
  8
0
 10
116.957
 20
196
 11
116.953
 21
196.047
  0
LINE
  8
0
 10
116.953
 20
196.047
 11
116.953
 21
196.953
  0
LINE
  8
0
 10
116.953
 20
196.953
 11
116.948
 21
197
  0
LINE
  8
0
 10
116.948
 20
197
 11
116.944
 21
197.056
  0
LINE
  8
0
 10
116.944
 20
197.056
 11
116.944
 21
197.944
  0
LINE
  8
0
 10
116.944
 20
197.944
 11
116.94
 21
198
  0
LINE
  8
0
 10
116.94
 20
198
 11
116.932
 21
198.068
  0
LINE
  8
0
 10
116.932
 20
198.068
 11
116.932
 21
198.932
  0
LINE
  8
0
 10
116.932
 20
198.932
 11
116.923
 21
199
  0
LINE
  8
0
 10
116.923
 20
199
 11
116.897
 21
199.103
  0
LINE
  8
0
 10
116.897
 20
199.103
 11
116.897
 21
199.897
  0
LINE
  8
0
 10
116.897
 20
199.897
 11
116.845
 21
200
  0
LINE
  8
0
 10
116.845
 20
200
 11
116.806
 21
200.194
  0
LINE
  8
0
 10
116.806
 20
200.194
 11
116.806
 21
200.806
  0
LINE
  8
0
 10
116.806
 20
200.806
 11
116.742
 21
201
  0
LINE
  8
0
 10
116.742
 20
201
 11
116.656
 21
201.344
  0
LINE
  8
0
 10
116.656
 20
201.344
 11
116.656
 21
201.656
  0
LINE
  8
0
 10
116.656
 20
201.656
 11
116.322
 21
202.322
  0
LINE
  8
0
 10
116.322
 20
202.322
 11
116
 21
202.483
  0
LINE
  8
0
 10
116
 20
202.483
 11
115.989
 21
202.989
  0
LINE
  8
0
 10
115.989
 20
202.989
 11
115.988
 21
203
  0
LINE
  8
0
 10
115.988
 20
203
 11
115.988
 21
203.012
  0
LINE
  8
0
 10
115.988
 20
203.012
 11
115.988
 21
203.988
  0
LINE
  8
0
 10
115.988
 20
203.988
 11
115.987
 21
204
  0
LINE
  8
0
 10
115.987
 20
204
 11
115.987
 21
204.013
  0
LINE
  8
0
 10
115.987
 20
204.013
 11
115.987
 21
204.987
  0
LINE
  8
0
 10
115.987
 20
204.987
 11
115.987
 21
205
  0
LINE
  8
0
 10
115.987
 20
205
 11
115.986
 21
205.014
  0
LINE
  8
0
 10
115.986
 20
205.014
 11
115.986
 21
205.986
  0
LINE
  8
0
 10
115.986
 20
205.986
 11
115.985
 21
206
  0
LINE
  8
0
 10
115.985
 20
206
 11
115.982
 21
206.018
  0
LINE
  8
0
 10
115.982
 20
206.018
 11
115.982
 21
206.982
  0
LINE
  8
0
 10
115.982
 20
206.982
 11
115.978
 21
207
  0
LINE
  8
0
 10
115.978
 20
207
 11
115.978
 21
207.022
  0
LINE
  8
0
 10
115.978
 20
207.022
 11
115.978
 21
207.978
  0
LINE
  8
0
 10
115.978
 20
207.978
 11
115.977
 21
208
  0
LINE
  8
0
 10
115.977
 20
208
 11
115.976
 21
208.024
  0
LINE
  8
0
 10
115.976
 20
208.024
 11
115.976
 21
208.976
  0
LINE
  8
0
 10
115.976
 20
208.976
 11
115.976
 21
209
  0
LINE
  8
0
 10
115.976
 20
209
 11
115.971
 21
209.029
  0
LINE
  8
0
 10
115.971
 20
209.029
 11
115.971
 21
209.971
  0
LINE
  8
0
 10
115.971
 20
209.971
 11
115.965
 21
210
  0
LINE
  8
0
 10
115.965
 20
210
 11
115.963
 21
210.037
  0
LINE
  8
0
 10
115.963
 20
210.037
 11
115.963
 21
210.963
  0
LINE
  8
0
 10
115.963
 20
210.963
 11
115.96
 21
211
  0
LINE
  8
0
 10
115.96
 20
211
 11
115.957
 21
211.043
  0
LINE
  8
0
 10
115.957
 20
211.043
 11
115.957
 21
211.957
  0
LINE
  8
0
 10
115.957
 20
211.957
 11
115.953
 21
212
  0
LINE
  8
0
 10
115.953
 20
212
 11
115.942
 21
212.058
  0
LINE
  8
0
 10
115.942
 20
212.058
 11
115.942
 21
212.942
  0
LINE
  8
0
 10
115.942
 20
212.942
 11
115.923
 21
213
  0
LINE
  8
0
 10
115.923
 20
213
 11
115.907
 21
213.093
  0
LINE
  8
0
 10
115.907
 20
213.093
 11
115.907
 21
213.907
  0
LINE
  8
0
 10
115.907
 20
213.907
 11
115.883
 21
214
  0
LINE
  8
0
 10
115.883
 20
214
 11
115.859
 21
214.141
  0
LINE
  8
0
 10
115.859
 20
214.141
 11
115.859
 21
214.859
  0
LINE
  8
0
 10
115.859
 20
214.859
 11
115.822
 21
215
  0
LINE
  8
0
 10
115.822
 20
215
 11
115.735
 21
215.265
  0
LINE
  8
0
 10
115.735
 20
215.265
 11
115.735
 21
215.735
  0
LINE
  8
0
 10
115.735
 20
215.735
 11
115.483
 21
216
  0
LINE
  8
0
 10
115.483
 20
216
 11
115.363
 21
216.363
  0
LINE
  8
0
 10
115.363
 20
216.363
 11
115
 21
216.725
  0
LINE
  8
0
 10
115
 20
216.725
 11
114.996
 21
216.996
  0
LINE
  8
0
 10
114.996
 20
216.996
 11
114.996
 21
217
  0
LINE
  8
0
 10
114.996
 20
217
 11
114.996
 21
217.004
  0
LINE
  8
0
 10
114.996
 20
217.004
 11
114.988
 21
217.988
  0
LINE
  8
0
 10
114.988
 20
217.988
 11
114.988
 21
218
  0
LINE
  8
0
 10
114.988
 20
218
 11
114.987
 21
218.013
  0
LINE
  8
0
 10
114.987
 20
218.013
 11
114.987
 21
218.987
  0
LINE
  8
0
 10
114.987
 20
218.987
 11
114.985
 21
219
  0
LINE
  8
0
 10
114.985
 20
219
 11
114.983
 21
219.017
  0
LINE
  8
0
 10
114.983
 20
219.017
 11
114.983
 21
219.983
  0
LINE
  8
0
 10
114.983
 20
219.983
 11
114.982
 21
220
  0
LINE
  8
0
 10
114.982
 20
220
 11
114.981
 21
220.019
  0
LINE
  8
0
 10
114.981
 20
220.019
 11
114.981
 21
220.981
  0
LINE
  8
0
 10
114.981
 20
220.981
 11
114.981
 21
221
  0
LINE
  8
0
 10
114.981
 20
221
 11
114.978
 21
221.022
  0
LINE
  8
0
 10
114.978
 20
221.022
 11
114.978
 21
221.978
  0
LINE
  8
0
 10
114.978
 20
221.978
 11
114.975
 21
222
  0
LINE
  8
0
 10
114.975
 20
222
 11
114.972
 21
222.028
  0
LINE
  8
0
 10
114.972
 20
222.028
 11
114.972
 21
222.972
  0
LINE
  8
0
 10
114.972
 20
222.972
 11
114.969
 21
223
  0
LINE
  8
0
 10
114.969
 20
223
 11
114.968
 21
223.032
  0
LINE
  8
0
 10
114.968
 20
223.032
 11
114.968
 21
223.968
  0
LINE
  8
0
 10
114.968
 20
223.968
 11
114.966
 21
224
  0
LINE
  8
0
 10
114.966
 20
224
 11
114.961
 21
224.039
  0
LINE
  8
0
 10
114.961
 20
224.039
 11
114.961
 21
224.961
  0
LINE
  8
0
 10
114.961
 20
224.961
 11
114.954
 21
225
  0
LINE
  8
0
 10
114.954
 20
225
 11
114.948
 21
225.052
  0
LINE
  8
0
 10
114.948
 20
225.052
 11
114.948
 21
225.948
  0
LINE
  8
0
 10
114.948
 20
225.948
 11
114.94
 21
226
  0
LINE
  8
0
 10
114.94
 20
226
 11
114.931
 21
226.069
  0
LINE
  8
0
 10
114.931
 20
226.069
 11
114.931
 21
226.931
  0
LINE
  8
0
 10
114.931
 20
226.931
 11
114.918
 21
227
  0
LINE
  8
0
 10
114.918
 20
227
 11
114.885
 21
227.115
  0
LINE
  8
0
 10
114.885
 20
227.115
 11
114.885
 21
227.885
  0
LINE
  8
0
 10
114.885
 20
227.885
 11
114.806
 21
228
  0
LINE
  8
0
 10
114.806
 20
228
 11
114.718
 21
228.282
  0
LINE
  8
0
 10
114.718
 20
228.282
 11
114.718
 21
228.718
  0
LINE
  8
0
 10
114.718
 20
228.718
 11
114.483
 21
229
  0
LINE
  8
0
 10
114.483
 20
229
 11
114.322
 21
229.322
  0
LINE
  8
0
 10
114.322
 20
229.322
 11
114
 21
229.483
  0
LINE
  8
0
 10
114
 20
229.483
 11
113.987
 21
229.987
  0
LINE
  8
0
 10
113.987
 20
229.987
 11
113.986
 21
230
  0
LINE
  8
0
 10
113.986
 20
230
 11
113.985
 21
230.015
  0
LINE
  8
0
 10
113.985
 20
230.015
 11
113.985
 21
230.985
  0
LINE
  8
0
 10
113.985
 20
230.985
 11
113.985
 21
231
  0
LINE
  8
0
 10
113.985
 20
231
 11
113.982
 21
231.018
  0
LINE
  8
0
 10
113.982
 20
231.018
 11
113.982
 21
231.982
  0
LINE
  8
0
 10
113.982
 20
231.982
 11
113.978
 21
232
  0
LINE
  8
0
 10
113.978
 20
232
 11
113.976
 21
232.024
  0
LINE
  8
0
 10
113.976
 20
232.024
 11
113.976
 21
232.976
  0
LINE
  8
0
 10
113.976
 20
232.976
 11
113.973
 21
233
  0
LINE
  8
0
 10
113.973
 20
233
 11
113.967
 21
233.033
  0
LINE
  8
0
 10
113.967
 20
233.033
 11
113.967
 21
233.967
  0
LINE
  8
0
 10
113.967
 20
233.967
 11
113.958
 21
234
  0
LINE
  8
0
 10
113.958
 20
234
 11
113.944
 21
234.056
  0
LINE
  8
0
 10
113.944
 20
234.056
 11
113.944
 21
234.944
  0
LINE
  8
0
 10
113.944
 20
234.944
 11
113.918
 21
235
  0
LINE
  8
0
 10
113.918
 20
235
 11
113.865
 21
235.135
  0
LINE
  8
0
 10
113.865
 20
235.135
 11
113.865
 21
235.865
  0
LINE
  8
0
 10
113.865
 20
235.865
 11
113.613
 21
236
  0
LINE
  8
0
 10
113.613
 20
236
 11
113.408
 21
236.408
  0
LINE
  8
0
 10
113.408
 20
236.408
 11
113
 21
236.613
  0
LINE
  8
0
 10
113
 20
236.613
 11
112.987
 21
236.987
  0
LINE
  8
0
 10
112.987
 20
236.987
 11
112.985
 21
237
  0
LINE
  8
0
 10
112.985
 20
237
 11
112.982
 21
237.018
  0
LINE
  8
0
 10
112.982
 20
237.018
 11
112.982
 21
237.982
  0
LINE
  8
0
 10
112.982
 20
237.982
 11
112.977
 21
238
  0
LINE
  8
0
 10
112.977
 20
238
 11
112.969
 21
238.031
  0
LINE
  8
0
 10
112.969
 20
238.031
 11
112.969
 21
238.969
  0
LINE
  8
0
 10
112.969
 20
238.969
 11
112.955
 21
239
  0
LINE
  8
0
 10
112.955
 20
239
 11
112.929
 21
239.071
  0
LINE
  8
0
 10
112.929
 20
239.071
 11
112.929
 21
239.929
  0
LINE
  8
0
 10
112.929
 20
239.929
 11
112.824
 21
240
  0
LINE
  8
0
 10
112.824
 20
240
 11
112.647
 21
240.353
  0
LINE
  8
0
 10
112.647
 20
240.353
 11
112.647
 21
240.647
  0
LINE
  8
0
 10
112.647
 20
240.647
 11
112.353
 21
240.647
  0
LINE
  8
0
 10
112.353
 20
240.647
 11
112
 21
240.824
  0
LINE
  8
0
 10
112
 20
240.824
 11
111.987
 21
240.987
  0
LINE
  8
0
 10
111.987
 20
240.987
 11
111.984
 21
241
  0
LINE
  8
0
 10
111.984
 20
241
 11
111.978
 21
241.022
  0
LINE
  8
0
 10
111.978
 20
241.022
 11
111.978
 21
241.978
  0
LINE
  8
0
 10
111.978
 20
241.978
 11
111.966
 21
242
  0
LINE
  8
0
 10
111.966
 20
242
 11
111.943
 21
242.057
  0
LINE
  8
0
 10
111.943
 20
242.057
 11
111.943
 21
242.943
  0
LINE
  8
0
 10
111.943
 20
242.943
 11
111.828
 21
243
  0
LINE
  8
0
 10
111.828
 20
243
 11
111.656
 21
243.344
  0
LINE
  8
0
 10
111.656
 20
243.344
 11
111.656
 21
243.656
  0
LINE
  8
0
 10
111.656
 20
243.656
 11
111.344
 21
243.656
  0
LINE
  8
0
 10
111.344
 20
243.656
 11
111
 21
243.828
  0
LINE
  8
0
 10
111
 20
243.828
 11
110.985
 21
243.985
  0
LINE
  8
0
 10
110.985
 20
243.985
 11
110.98
 21
244
  0
LINE
  8
0
 10
110.98
 20
244
 11
110.969
 21
244.031
  0
LINE
  8
0
 10
110.969
 20
244.031
 11
110.969
 21
244.969
  0
LINE
  8
0
 10
110.969
 20
244.969
 11
110.923
 21
245
  0
LINE
  8
0
 10
110.923
 20
245
 11
110.845
 21
245.155
  0
LINE
  8
0
 10
110.845
 20
245.155
 11
110.845
 21
245.845
  0
LINE
  8
0
 10
110.845
 20
245.845
 11
110.155
 21
245.845
  0
LINE
  8
0
 10
110.155
 20
245.845
 11
110
 21
245.923
  0
LINE
  8
0
 10
110
 20
245.923
 11
109.986
 21
245.986
  0
LINE
  8
0
 10
109.986
 20
245.986
 11
109.98
 21
246
  0
LINE
  8
0
 10
109.98
 20
246
 11
109.968
 21
246.032
  0
LINE
  8
0
 10
109.968
 20
246.032
 11
109.968
 21
246.968
  0
LINE
  8
0
 10
109.968
 20
246.968
 11
109.918
 21
247
  0
LINE
  8
0
 10
109.918
 20
247
 11
109.837
 21
247.163
  0
LINE
  8
0
 10
109.837
 20
247.163
 11
109.837
 21
247.837
  0
LINE
  8
0
 10
109.837
 20
247.837
 11
109.163
 21
247.837
  0
LINE
  8
0
 10
109.163
 20
247.837
 11
109
 21
247.918
  0
LINE
  8
0
 10
109
 20
247.918
 11
108.984
 21
247.984
  0
LINE
  8
0
 10
108.984
 20
247.984
 11
108.974
 21
248
  0
LINE
  8
0
 10
108.974
 20
248
 11
108.952
 21
248.048
  0
LINE
  8
0
 10
108.952
 20
248.048
 11
108.952
 21
248.952
  0
LINE
  8
0
 10
108.952
 20
248.952
 11
108.613
 21
249
  0
LINE
  8
0
 10
108.613
 20
249
 11
108.408
 21
249.408
  0
LINE
  8
0
 10
108.408
 20
249.408
 11
108
 21
249.613
  0
LINE
  8
0
 10
108
 20
249.613
 11
107.973
 21
249.973
  0
LINE
  8
0
 10
107.973
 20
249.973
 11
107.917
 21
250
  0
LINE
  8
0
 10
107.917
 20
250
 11
107.834
 21
250.166
  0
LINE
  8
0
 10
107.834
 20
250.166
 11
107.834
 21
250.834
  0
LINE
  8
0
 10
107.834
 20
250.834
 11
107.166
 21
250.834
  0
LINE
  8
0
 10
107.166
 20
250.834
 11
107
 21
250.917
  0
LINE
  8
0
 10
107
 20
250.917
 11
106.98
 21
250.98
  0
LINE
  8
0
 10
106.98
 20
250.98
 11
106.953
 21
251
  0
LINE
  8
0
 10
106.953
 20
251
 11
106.906
 21
251.094
  0
LINE
  8
0
 10
106.906
 20
251.094
 11
106.906
 21
251.906
  0
LINE
  8
0
 10
106.906
 20
251.906
 11
106.094
 21
251.906
  0
LINE
  8
0
 10
106.094
 20
251.906
 11
106
 21
251.953
  0
LINE
  8
0
 10
106
 20
251.953
 11
105.982
 21
251.982
  0
LINE
  8
0
 10
105.982
 20
251.982
 11
105.958
 21
252
  0
LINE
  8
0
 10
105.958
 20
252
 11
105.916
 21
252.084
  0
LINE
  8
0
 10
105.916
 20
252.084
 11
105.916
 21
252.916
  0
LINE
  8
0
 10
105.916
 20
252.916
 11
105.084
 21
252.916
  0
LINE
  8
0
 10
105.084
 20
252.916
 11
105
 21
252.958
  0
LINE
  8
0
 10
105
 20
252.958
 11
104.983
 21
252.983
  0
LINE
  8
0
 10
104.983
 20
252.983
 11
104.955
 21
253
  0
LINE
  8
0
 10
104.955
 20
253
 11
104.911
 21
253.089
  0
LINE
  8
0
 10
104.911
 20
253.089
 11
104.911
 21
253.911
  0
LINE
  8
0
 10
104.911
 20
253.911
 11
104.089
 21
253.911
  0
LINE
  8
0
 10
104.089
 20
253.911
 11
104
 21
253.955
  0
LINE
  8
0
 10
104
 20
253.955
 11
103.981
 21
253.981
  0
LINE
  8
0
 10
103.981
 20
253.981
 11
103.935
 21
254
  0
LINE
  8
0
 10
103.935
 20
254
 11
103.871
 21
254.129
  0
LINE
  8
0
 10
103.871
 20
254.129
 11
103.871
 21
254.871
  0
LINE
  8
0
 10
103.871
 20
254.871
 11
103.129
 21
254.871
  0
LINE
  8
0
 10
103.129
 20
254.871
 11
103
 21
254.935
  0
LINE
  8
0
 10
103
 20
254.935
 11
102.976
 21
254.976
  0
LINE
  8
0
 10
102.976
 20
254.976
 11
102.828
 21
255
  0
LINE
  8
0
 10
102.828
 20
255
 11
102.656
 21
255.344
  0
LINE
  8
0
 10
102.656
 20
255.344
 11
102.656
 21
255.656
  0
LINE
  8
0
 10
102.656
 20
255.656
 11
102.344
 21
255.656
  0
LINE
  8
0
 10
102.344
 20
255.656
 11
102
 21
255.828
  0
LINE
  8
0
 10
102
 20
255.828
 11
101.965
 21
255.965
  0
LINE
  8
0
 10
101.965
 20
255.965
 11
101.013
 21
255.987
  0
LINE
  8
0
 10
101.013
 20
255.987
 11
101
 21
255.993
  0
LINE
  8
0
 10
101
 20
255.993
 11
100.995
 21
255.995
  0
LINE
  8
0
 10
100.995
 20
255.995
 11
100.985
 21
256
  0
LINE
  8
0
 10
100.985
 20
256
 11
100.967
 21
256.033
  0
LINE
  8
0
 10
100.967
 20
256.033
 11
100.918
 21
256.918
  0
LINE
  8
0
 10
100.918
 20
256.918
 11
100.082
 21
256.918
  0
LINE
  8
0
 10
100.082
 20
256.918
 11
100
 21
256.958
  0
LINE
  8
0
 10
100
 20
256.958
 11
99.9778
 21
256.978
  0
LINE
  8
0
 10
99.9778
 20
256.978
 11
99.7417
 21
257
  0
LINE
  8
0
 10
99.7417
 20
257
 11
99.4944
 21
257.494
  0
LINE
  8
0
 10
99.4944
 20
257.494
 11
99
 21
257.742
  0
LINE
  8
0
 10
99
 20
257.742
 11
98.9534
 21
257.953
  0
LINE
  8
0
 10
98.9534
 20
257.953
 11
98.0466
 21
257.953
  0
LINE
  8
0
 10
98.0466
 20
257.953
 11
98
 21
257.974
  0
LINE
  8
0
 10
98
 20
257.974
 11
97.9813
 21
257.981
  0
LINE
  8
0
 10
97.9813
 20
257.981
 11
97.8278
 21
258
  0
LINE
  8
0
 10
97.8278
 20
258
 11
97.6555
 21
258.344
  0
LINE
  8
0
 10
97.6555
 20
258.344
 11
97.6555
 21
258.656
  0
LINE
  8
0
 10
97.6555
 20
258.656
 11
97.3444
 21
258.656
  0
LINE
  8
0
 10
97.3444
 20
258.656
 11
97
 21
258.828
  0
LINE
  8
0
 10
97
 20
258.828
 11
96.9463
 21
258.946
  0
LINE
  8
0
 10
96.9463
 20
258.946
 11
96.0537
 21
258.946
  0
LINE
  8
0
 10
96.0537
 20
258.946
 11
96
 21
258.968
  0
LINE
  8
0
 10
96
 20
258.968
 11
95.9788
 21
258.979
  0
LINE
  8
0
 10
95.9788
 20
258.979
 11
95.225
 21
259
  0
LINE
  8
0
 10
95.225
 20
259
 11
95.15
 21
259.15
  0
LINE
  8
0
 10
95.15
 20
259.15
 11
95
 21
259.225
  0
LINE
  8
0
 10
95
 20
259.225
 11
94.8843
 21
259.884
  0
LINE
  8
0
 10
94.8843
 20
259.884
 11
94.1157
 21
259.884
  0
LINE
  8
0
 10
94.1157
 20
259.884
 11
94
 21
259.937
  0
LINE
  8
0
 10
94
 20
259.937
 11
93.9641
 21
259.964
  0
LINE
  8
0
 10
93.9641
 20
259.964
 11
93.0359
 21
259.964
  0
LINE
  8
0
 10
93.0359
 20
259.964
 11
93
 21
259.975
  0
LINE
  8
0
 10
93
 20
259.975
 11
92.9799
 21
259.98
  0
LINE
  8
0
 10
92.9799
 20
259.98
 11
92.0073
 21
259.993
  0
LINE
  8
0
 10
92.0073
 20
259.993
 11
92
 21
259.994
  0
LINE
  8
0
 10
92
 20
259.994
 11
91.9945
 21
259.995
  0
LINE
  8
0
 10
91.9945
 20
259.995
 11
91.9607
 21
260
  0
LINE
  8
0
 10
91.9607
 20
260
 11
91.9083
 21
260.092
  0
LINE
  8
0
 10
91.9083
 20
260.092
 11
91.8062
 21
260.806
  0
LINE
  8
0
 10
91.8062
 20
260.806
 11
91.1937
 21
260.806
  0
LINE
  8
0
 10
91.1937
 20
260.806
 11
91
 21
260.897
  0
LINE
  8
0
 10
91
 20
260.897
 11
90.9413
 21
260.941
  0
LINE
  8
0
 10
90.9413
 20
260.941
 11
90.0587
 21
260.941
  0
LINE
  8
0
 10
90.0587
 20
260.941
 11
90
 21
260.959
  0
LINE
  8
0
 10
90
 20
260.959
 11
89.9686
 21
260.969
  0
LINE
  8
0
 10
89.9686
 20
260.969
 11
89.0314
 21
260.969
  0
LINE
  8
0
 10
89.0314
 20
260.969
 11
89
 21
260.975
  0
LINE
  8
0
 10
89
 20
260.975
 11
88.9787
 21
260.979
  0
LINE
  8
0
 10
88.9787
 20
260.979
 11
88.0213
 21
260.979
  0
LINE
  8
0
 10
88.0213
 20
260.979
 11
88
 21
260.982
  0
LINE
  8
0
 10
88
 20
260.982
 11
87.983
 21
260.983
  0
LINE
  8
0
 10
87.983
 20
260.983
 11
87.225
 21
261
  0
LINE
  8
0
 10
87.225
 20
261
 11
87.15
 21
261.15
  0
LINE
  8
0
 10
87.15
 20
261.15
 11
87
 21
261.225
  0
LINE
  8
0
 10
87
 20
261.225
 11
86.7615
 21
261.762
  0
LINE
  8
0
 10
86.7615
 20
261.762
 11
86.2385
 21
261.762
  0
LINE
  8
0
 10
86.2385
 20
261.762
 11
86
 21
261.859
  0
LINE
  8
0
 10
86
 20
261.859
 11
85.9139
 21
261.914
  0
LINE
  8
0
 10
85.9139
 20
261.914
 11
85.0861
 21
261.914
  0
LINE
  8
0
 10
85.0861
 20
261.914
 11
85
 21
261.938
  0
LINE
  8
0
 10
85
 20
261.938
 11
84.9483
 21
261.948
  0
LINE
  8
0
 10
84.9483
 20
261.948
 11
84.0517
 21
261.948
  0
LINE
  8
0
 10
84.0517
 20
261.948
 11
84
 21
261.956
  0
LINE
  8
0
 10
84
 20
261.956
 11
83.9652
 21
261.965
  0
LINE
  8
0
 10
83.9652
 20
261.965
 11
83.0348
 21
261.965
  0
LINE
  8
0
 10
83.0348
 20
261.965
 11
83
 21
261.971
  0
LINE
  8
0
 10
83
 20
261.971
 11
82.9733
 21
261.973
  0
LINE
  8
0
 10
82.9733
 20
261.973
 11
82.0267
 21
261.973
  0
LINE
  8
0
 10
82.0267
 20
261.973
 11
82
 21
261.975
  0
LINE
  8
0
 10
82
 20
261.975
 11
81.9799
 21
261.98
  0
LINE
  8
0
 10
81.9799
 20
261.98
 11
81.02
 21
261.98
  0
LINE
  8
0
 10
81.02
 20
261.98
 11
81
 21
261.983
  0
LINE
  8
0
 10
81
 20
261.983
 11
80.9834
 21
261.983
  0
LINE
  8
0
 10
80.9834
 20
261.983
 11
80.0166
 21
261.983
  0
LINE
  8
0
 10
80.0166
 20
261.983
 11
80
 21
261.983
  0
LINE
  8
0
 10
80
 20
261.983
 11
79.984
 21
261.984
  0
LINE
  8
0
 10
79.984
 20
261.984
 11
79.0058
 21
261.994
  0
LINE
  8
0
 10
79.0058
 20
261.994
 11
79
 21
261.994
  0
LINE
  8
0
 10
79
 20
261.994
 11
78.9944
 21
261.994
  0
LINE
  8
0
 10
78.9944
 20
261.994
 11
78.8167
 21
262
  0
LINE
  8
0
 10
78.8167
 20
262
 11
78.4454
 21
262.445
  0
LINE
  8
0
 10
78.4454
 20
262.445
 11
78
 21
262.612
  0
LINE
  8
0
 10
78
 20
262.612
 11
77.7562
 21
262.756
  0
LINE
  8
0
 10
77.7562
 20
262.756
 11
77.2438
 21
262.756
  0
LINE
  8
0
 10
77.2438
 20
262.756
 11
77
 21
262.822
  0
LINE
  8
0
 10
77
 20
262.822
 11
76.8794
 21
262.879
  0
LINE
  8
0
 10
76.8794
 20
262.879
 11
76.1205
 21
262.879
  0
LINE
  8
0
 10
76.1205
 20
262.879
 11
76
 21
262.909
  0
LINE
  8
0
 10
76
 20
262.909
 11
75.9262
 21
262.926
  0
LINE
  8
0
 10
75.9262
 20
262.926
 11
75.0738
 21
262.926
  0
LINE
  8
0
 10
75.0738
 20
262.926
 11
75
 21
262.938
  0
LINE
  8
0
 10
75
 20
262.938
 11
74.9415
 21
262.941
  0
LINE
  8
0
 10
74.9415
 20
262.941
 11
74.0585
 21
262.941
  0
LINE
  8
0
 10
74.0585
 20
262.941
 11
74
 21
262.945
  0
LINE
  8
0
 10
74
 20
262.945
 11
73.9506
 21
262.951
  0
LINE
  8
0
 10
73.9506
 20
262.951
 11
73.0494
 21
262.951
  0
LINE
  8
0
 10
73.0494
 20
262.951
 11
73
 21
262.955
  0
LINE
  8
0
 10
73
 20
262.955
 11
72.9611
 21
262.961
  0
LINE
  8
0
 10
72.9611
 20
262.961
 11
72.0388
 21
262.961
  0
LINE
  8
0
 10
72.0388
 20
262.961
 11
72
 21
262.966
  0
LINE
  8
0
 10
72
 20
262.966
 11
71.9666
 21
262.967
  0
LINE
  8
0
 10
71.9666
 20
262.967
 11
71.0334
 21
262.967
  0
LINE
  8
0
 10
71.0334
 20
262.967
 11
71
 21
262.968
  0
LINE
  8
0
 10
71
 20
262.968
 11
70.9683
 21
262.968
  0
LINE
  8
0
 10
70.9683
 20
262.968
 11
70.0317
 21
262.968
  0
LINE
  8
0
 10
70.0317
 20
262.968
 11
70
 21
262.969
  0
LINE
  8
0
 10
70
 20
262.969
 11
69.9693
 21
262.969
  0
LINE
  8
0
 10
69.9693
 20
262.969
 11
69.0307
 21
262.969
  0
LINE
  8
0
 10
69.0307
 20
262.969
 11
69
 21
262.97
  0
LINE
  8
0
 10
69
 20
262.97
 11
68.9745
 21
262.975
  0
LINE
  8
0
 10
68.9745
 20
262.975
 11
68.0255
 21
262.975
  0
LINE
  8
0
 10
68.0255
 20
262.975
 11
68
 21
262.978
  0
LINE
  8
0
 10
68
 20
262.978
 11
67.979
 21
262.979
  0
LINE
  8
0
 10
67.979
 20
262.979
 11
67.021
 21
262.979
  0
LINE
  8
0
 10
67.021
 20
262.979
 11
67
 21
262.98
  0
LINE
  8
0
 10
67
 20
262.98
 11
66.9798
 21
262.98
  0
LINE
  8
0
 10
66.9798
 20
262.98
 11
66.0202
 21
262.98
  0
LINE
  8
0
 10
66.0202
 20
262.98
 11
66
 21
262.98
  0
LINE
  8
0
 10
66
 20
262.98
 11
65.9799
 21
262.98
  0
LINE
  8
0
 10
65.9799
 20
262.98
 11
65.0201
 21
262.98
  0
LINE
  8
0
 10
65.0201
 20
262.98
 11
65
 21
262.98
  0
LINE
  8
0
 10
65
 20
262.98
 11
64.98
 21
262.98
  0
LINE
  8
0
 10
64.98
 20
262.98
 11
64
 21
262.98
  0
LINE
  8
0
 10
64
 20
262.98
 11
63.9804
 21
262.98
  0
LINE
  8
0
 10
63.9804
 20
262.98
 11
63.0196
 21
262.98
  0
LINE
  8
0
 10
63.0196
 20
262.98
 11
63
 21
262.981
  0
LINE
  8
0
 10
63
 20
262.981
 11
62.9805
 21
262.981
  0
LINE
  8
0
 10
62.9805
 20
262.981
 11
62.0195
 21
262.981
  0
LINE
  8
0
 10
62.0195
 20
262.981
 11
62
 21
262.98
  0
LINE
  8
0
 10
62
 20
262.98
 11
61
 21
262.98
  0
LINE
  8
0
 10
61
 20
262.98
 11
60.9803
 21
262.98
  0
LINE
  8
0
 10
60.9803
 20
262.98
 11
60.0197
 21
262.98
  0
LINE
  8
0
 10
60.0197
 20
262.98
 11
60
 21
262.98
  0
LINE
  8
0
 10
60
 20
262.98
 11
59.9805
 21
262.98
  0
LINE
  8
0
 10
59.9805
 20
262.98
 11
59.0195
 21
262.98
  0
LINE
  8
0
 10
59.0195
 20
262.98
 11
59
 21
262.981
  0
LINE
  8
0
 10
59
 20
262.981
 11
58.9805
 21
262.981
  0
LINE
  8
0
 10
58.9805
 20
262.981
 11
58.0195
 21
262.981
  0
LINE
  8
0
 10
58.0195
 20
262.981
 11
58
 21
262.98
  0
LINE
  8
0
 10
58
 20
262.98
 11
57.9806
 21
262.981
  0
LINE
  8
0
 10
57.9806
 20
262.981
 11
57.0194
 21
262.981
  0
LINE
  8
0
 10
57.0194
 20
262.981
 11
57
 21
262.981
  0
LINE
  8
0
 10
57
 20
262.981
 11
56.9805
 21
262.981
  0
LINE
  8
0
 10
56.9805
 20
262.981
 11
56.0194
 21
262.981
  0
LINE
  8
0
 10
56.0194
 20
262.981
 11
56
 21
262.98
  0
LINE
  8
0
 10
56
 20
262.98
 11
55.9803
 21
262.98
  0
LINE
  8
0
 10
55.9803
 20
262.98
 11
55.0197
 21
262.98
  0
LINE
  8
0
 10
55.0197
 20
262.98
 11
55
 21
262.98
  0
LINE
  8
0
 10
55
 20
262.98
 11
54.9798
 21
262.98
  0
LINE
  8
0
 10
54.9798
 20
262.98
 11
54.0201
 21
262.98
  0
LINE
  8
0
 10
54.0201
 20
262.98
 11
54
 21
262.98
  0
LINE
  8
0
 10
54
 20
262.98
 11
53.9761
 21
262.976
  0
LINE
  8
0
 10
53.9761
 20
262.976
 11
53.0239
 21
262.976
  0
LINE
  8
0
 10
53.0239
 20
262.976
 11
53
 21
262.971
  0
LINE
  8
0
 10
53
 20
262.971
 11
52.9704
 21
262.97
  0
LINE
  8
0
 10
52.9704
 20
262.97
 11
52.0296
 21
262.97
  0
LINE
  8
0
 10
52.0296
 20
262.97
 11
52
 21
262.97
  0
LINE
  8
0
 10
52
 20
262.97
 11
51.9687
 21
262.969
  0
LINE
  8
0
 10
51.9687
 20
262.969
 11
51.0313
 21
262.969
  0
LINE
  8
0
 10
51.0313
 20
262.969
 11
50.9665
 21
262.967
  0
LINE
  8
0
 10
50.9665
 20
262.967
 11
50.0335
 21
262.967
  0
LINE
  8
0
 10
50.0335
 20
262.967
 11
50
 21
262.965
  0
LINE
  8
0
 10
50
 20
262.965
 11
49.959
 21
262.959
  0
LINE
  8
0
 10
49.959
 20
262.959
 11
49.0409
 21
262.959
  0
LINE
  8
0
 10
49.0409
 20
262.959
 11
49
 21
262.95
  0
LINE
  8
0
 10
49
 20
262.95
 11
48.9474
 21
262.947
  0
LINE
  8
0
 10
48.9474
 20
262.947
 11
48.0525
 21
262.947
  0
LINE
  8
0
 10
48.0525
 20
262.947
 11
48
 21
262.945
  0
LINE
  8
0
 10
48
 20
262.945
 11
47.9455
 21
262.946
  0
LINE
  8
0
 10
47.9455
 20
262.946
 11
47.0544
 21
262.946
  0
LINE
  8
0
 10
47.0544
 20
262.946
 11
47
 21
262.946
  0
LINE
  8
0
 10
47
 20
262.946
 11
46.9294
 21
262.929
  0
LINE
  8
0
 10
46.9294
 20
262.929
 11
46.0706
 21
262.929
  0
LINE
  8
0
 10
46.0706
 20
262.929
 11
46
 21
262.897
  0
LINE
  8
0
 10
46
 20
262.897
 11
45.8652
 21
262.865
  0
LINE
  8
0
 10
45.8652
 20
262.865
 11
45.1348
 21
262.865
  0
LINE
  8
0
 10
45.1348
 20
262.865
 11
45
 21
262.806
  0
LINE
  8
0
 10
45
 20
262.806
 11
44.69
 21
262.69
  0
LINE
  8
0
 10
44.69
 20
262.69
 11
44.31
 21
262.69
  0
LINE
  8
0
 10
44.31
 20
262.69
 11
44
 21
262.225
  0
LINE
  8
0
 10
44
 20
262.225
 11
43.85
 21
262.15
  0
LINE
  8
0
 10
43.85
 20
262.15
 11
43.775
 21
262
  0
LINE
  8
0
 10
43.775
 20
262
 11
43.0124
 21
261.988
  0
LINE
  8
0
 10
43.0124
 20
261.988
 11
43
 21
261.987
  0
LINE
  8
0
 10
43
 20
261.987
 11
42.0127
 21
261.987
  0
LINE
  8
0
 10
42.0127
 20
261.987
 11
42
 21
261.987
  0
LINE
  8
0
 10
42
 20
261.987
 11
41.9857
 21
261.986
  0
LINE
  8
0
 10
41.9857
 20
261.986
 11
41.0143
 21
261.986
  0
LINE
  8
0
 10
41.0143
 20
261.986
 11
41
 21
261.984
  0
LINE
  8
0
 10
41
 20
261.984
 11
40.9822
 21
261.982
  0
LINE
  8
0
 10
40.9822
 20
261.982
 11
40.0178
 21
261.982
  0
LINE
  8
0
 10
40.0178
 20
261.982
 11
40
 21
261.98
  0
LINE
  8
0
 10
40
 20
261.98
 11
39.978
 21
261.978
  0
LINE
  8
0
 10
39.978
 20
261.978
 11
39.022
 21
261.978
  0
LINE
  8
0
 10
39.022
 20
261.978
 11
39
 21
261.975
  0
LINE
  8
0
 10
39
 20
261.975
 11
38.9715
 21
261.972
  0
LINE
  8
0
 10
38.9715
 20
261.972
 11
38.0285
 21
261.972
  0
LINE
  8
0
 10
38.0285
 20
261.972
 11
38
 21
261.967
  0
LINE
  8
0
 10
38
 20
261.967
 11
37.9586
 21
261.959
  0
LINE
  8
0
 10
37.9586
 20
261.959
 11
37.0414
 21
261.959
  0
LINE
  8
0
 10
37.0414
 20
261.959
 11
37
 21
261.945
  0
LINE
  8
0
 10
37
 20
261.945
 11
36.9244
 21
261.924
  0
LINE
  8
0
 10
36.9244
 20
261.924
 11
36.0756
 21
261.924
  0
LINE
  8
0
 10
36.0756
 20
261.924
 11
36
 21
261.881
  0
LINE
  8
0
 10
36
 20
261.881
 11
35.7933
 21
261.793
  0
LINE
  8
0
 10
35.7933
 20
261.793
 11
35.2067
 21
261.793
  0
LINE
  8
0
 10
35.2067
 20
261.793
 11
35
 21
261.225
  0
LINE
  8
0
 10
35
 20
261.225
 11
34.85
 21
261.15
  0
LINE
  8
0
 10
34.85
 20
261.15
 11
34.775
 21
261
  0
LINE
  8
0
 10
34.775
 20
261
 11
34.0133
 21
260.987
  0
LINE
  8
0
 10
34.0133
 20
260.987
 11
34
 21
260.986
  0
LINE
  8
0
 10
34
 20
260.986
 11
33.9844
 21
260.984
  0
LINE
  8
0
 10
33.9844
 20
260.984
 11
33.0156
 21
260.984
  0
LINE
  8
0
 10
33.0156
 20
260.984
 11
33
 21
260.983
  0
LINE
  8
0
 10
33
 20
260.983
 11
32.9789
 21
260.979
  0
LINE
  8
0
 10
32.9789
 20
260.979
 11
32.0211
 21
260.979
  0
LINE
  8
0
 10
32.0211
 20
260.979
 11
32
 21
260.973
  0
LINE
  8
0
 10
32
 20
260.973
 11
31.967
 21
260.967
  0
LINE
  8
0
 10
31.967
 20
260.967
 11
31.033
 21
260.967
  0
LINE
  8
0
 10
31.033
 20
260.967
 11
31
 21
260.957
  0
LINE
  8
0
 10
31
 20
260.957
 11
30.931
 21
260.931
  0
LINE
  8
0
 10
30.931
 20
260.931
 11
30.069
 21
260.931
  0
LINE
  8
0
 10
30.069
 20
260.931
 11
30
 21
260.828
  0
LINE
  8
0
 10
30
 20
260.828
 11
29.6555
 21
260.656
  0
LINE
  8
0
 10
29.6555
 20
260.656
 11
29.3444
 21
260.656
  0
LINE
  8
0
 10
29.3444
 20
260.656
 11
29.3444
 21
260.344
  0
LINE
  8
0
 10
29.3444
 20
260.344
 11
29.1722
 21
260
  0
LINE
  8
0
 10
29.1722
 20
260
 11
29
 21
259.984
  0
LINE
  8
0
 10
29
 20
259.984
 11
28.9809
 21
259.981
  0
LINE
  8
0
 10
28.9809
 20
259.981
 11
28.0191
 21
259.981
  0
LINE
  8
0
 10
28.0191
 20
259.981
 11
28
 21
259.976
  0
LINE
  8
0
 10
28
 20
259.976
 11
27.967
 21
259.967
  0
LINE
  8
0
 10
27.967
 20
259.967
 11
27.033
 21
259.967
  0
LINE
  8
0
 10
27.033
 20
259.967
 11
27
 21
259.946
  0
LINE
  8
0
 10
27
 20
259.946
 11
26.9029
 21
259.903
  0
LINE
  8
0
 10
26.9029
 20
259.903
 11
26.0971
 21
259.903
  0
LINE
  8
0
 10
26.0971
 20
259.903
 11
26
 21
259.483
  0
LINE
  8
0
 10
26
 20
259.483
 11
25.6778
 21
259.322
  0
LINE
  8
0
 10
25.6778
 20
259.322
 11
25.5167
 21
259
  0
LINE
  8
0
 10
25.5167
 20
259
 11
25.0186
 21
258.981
  0
LINE
  8
0
 10
25.0186
 20
258.981
 11
25
 21
258.974
  0
LINE
  8
0
 10
25
 20
258.974
 11
24.959
 21
258.959
  0
LINE
  8
0
 10
24.959
 20
258.959
 11
24.0409
 21
258.959
  0
LINE
  8
0
 10
24.0409
 20
258.959
 11
24
 21
258.897
  0
LINE
  8
0
 10
24
 20
258.897
 11
23.7933
 21
258.793
  0
LINE
  8
0
 10
23.7933
 20
258.793
 11
23.2067
 21
258.793
  0
LINE
  8
0
 10
23.2067
 20
258.793
 11
23.2067
 21
258.207
  0
LINE
  8
0
 10
23.2067
 20
258.207
 11
23.1033
 21
258
  0
LINE
  8
0
 10
23.1033
 20
258
 11
23.0157
 21
257.984
  0
LINE
  8
0
 10
23.0157
 20
257.984
 11
23
 21
257.98
  0
LINE
  8
0
 10
23
 20
257.98
 11
22.967
 21
257.967
  0
LINE
  8
0
 10
22.967
 20
257.967
 11
22.033
 21
257.967
  0
LINE
  8
0
 10
22.033
 20
257.967
 11
22
 21
257.903
  0
LINE
  8
0
 10
22
 20
257.903
 11
21.8062
 21
257.806
  0
LINE
  8
0
 10
21.8062
 20
257.806
 11
21.1937
 21
257.806
  0
LINE
  8
0
 10
21.1937
 20
257.806
 11
21.1937
 21
257.194
  0
LINE
  8
0
 10
21.1937
 20
257.194
 11
21.0969
 21
257
  0
LINE
  8
0
 10
21.0969
 20
257
 11
21.0168
 21
256.983
  0
LINE
  8
0
 10
21.0168
 20
256.983
 11
21
 21
256.975
  0
LINE
  8
0
 10
21
 20
256.975
 11
20.9537
 21
256.954
  0
LINE
  8
0
 10
20.9537
 20
256.954
 11
20.0463
 21
256.954
  0
LINE
  8
0
 10
20.0463
 20
256.954
 11
20
 21
256.69
  0
LINE
  8
0
 10
20
 20
256.69
 11
19.54
 21
256.46
  0
LINE
  8
0
 10
19.54
 20
256.46
 11
19.31
 21
256
  0
LINE
  8
0
 10
19.31
 20
256
 11
19.0244
 21
255.976
  0
LINE
  8
0
 10
19.0244
 20
255.976
 11
19
 21
255.933
  0
LINE
  8
0
 10
19
 20
255.933
 11
18.8652
 21
255.865
  0
LINE
  8
0
 10
18.8652
 20
255.865
 11
18.1348
 21
255.865
  0
LINE
  8
0
 10
18.1348
 20
255.865
 11
18.1348
 21
255.135
  0
LINE
  8
0
 10
18.1348
 20
255.135
 11
18.0674
 21
255
  0
LINE
  8
0
 10
18.0674
 20
255
 11
18.017
 21
254.983
  0
LINE
  8
0
 10
18.017
 20
254.983
 11
18
 21
254.968
  0
LINE
  8
0
 10
18
 20
254.968
 11
17.9363
 21
254.936
  0
LINE
  8
0
 10
17.9363
 20
254.936
 11
17.0637
 21
254.936
  0
LINE
  8
0
 10
17.0637
 20
254.936
 11
17.0637
 21
254.064
  0
LINE
  8
0
 10
17.0637
 20
254.064
 11
17.0319
 21
254
  0
LINE
  8
0
 10
17.0319
 20
254
 11
17.0134
 21
253.987
  0
LINE
  8
0
 10
17.0134
 20
253.987
 11
17
 21
253.975
  0
LINE
  8
0
 10
17
 20
253.975
 11
16.95
 21
253.95
  0
LINE
  8
0
 10
16.95
 20
253.95
 11
16.05
 21
253.95
  0
LINE
  8
0
 10
16.05
 20
253.95
 11
16.019
 21
253.019
  0
LINE
  8
0
 10
16.019
 20
253.019
 11
16.0092
 21
253
  0
LINE
  8
0
 10
16.0092
 20
253
 11
16.0042
 21
252.996
  0
LINE
  8
0
 10
16.0042
 20
252.996
 11
16
 21
252.993
  0
LINE
  8
0
 10
16
 20
252.993
 11
15.9855
 21
252.985
  0
LINE
  8
0
 10
15.9855
 20
252.985
 11
15.0389
 21
252.961
  0
LINE
  8
0
 10
15.0389
 20
252.961
 11
15.0145
 21
252.015
  0
LINE
  8
0
 10
15.0145
 20
252.015
 11
15.0072
 21
252
  0
LINE
  8
0
 10
15.0072
 20
252
 11
15.0042
 21
251.996
  0
LINE
  8
0
 10
15.0042
 20
251.996
 11
15
 21
251.991
  0
LINE
  8
0
 10
15
 20
251.991
 11
14.9815
 21
251.982
  0
LINE
  8
0
 10
14.9815
 20
251.982
 11
14.0488
 21
251.951
  0
LINE
  8
0
 10
14.0488
 20
251.951
 11
14.0488
 21
251.049
  0
LINE
  8
0
 10
14.0488
 20
251.049
 11
14.0248
 21
251
  0
LINE
  8
0
 10
14.0248
 20
251
 11
14.013
 21
250.987
  0
LINE
  8
0
 10
14.013
 20
250.987
 11
14
 21
250.97
  0
LINE
  8
0
 10
14
 20
250.97
 11
13.9403
 21
250.94
  0
LINE
  8
0
 10
13.9403
 20
250.94
 11
13.0597
 21
250.94
  0
LINE
  8
0
 10
13.0597
 20
250.94
 11
13.0597
 21
250.06
  0
LINE
  8
0
 10
13.0597
 20
250.06
 11
13.0298
 21
250
  0
LINE
  8
0
 10
13.0298
 20
250
 11
13.016
 21
249.984
  0
LINE
  8
0
 10
13.016
 20
249.984
 11
13
 21
249.938
  0
LINE
  8
0
 10
13
 20
249.938
 11
12.876
 21
249.876
  0
LINE
  8
0
 10
12.876
 20
249.876
 11
12.124
 21
249.876
  0
LINE
  8
0
 10
12.124
 20
249.876
 11
12.124
 21
249.124
  0
LINE
  8
0
 10
12.124
 20
249.124
 11
12.062
 21
249
  0
LINE
  8
0
 10
12.062
 20
249
 11
12.0225
 21
248.977
  0
LINE
  8
0
 10
12.0225
 20
248.977
 11
12
 21
248.613
  0
LINE
  8
0
 10
12
 20
248.613
 11
11.5917
 21
248.408
  0
LINE
  8
0
 10
11.5917
 20
248.408
 11
11.3875
 21
248
  0
LINE
  8
0
 10
11.3875
 20
248
 11
11.0517
 21
247.948
  0
LINE
  8
0
 10
11.0517
 20
247.948
 11
11.0517
 21
247.052
  0
LINE
  8
0
 10
11.0517
 20
247.052
 11
11.0277
 21
247
  0
LINE
  8
0
 10
11.0277
 20
247
 11
11.0169
 21
246.983
  0
LINE
  8
0
 10
11.0169
 20
246.983
 11
11
 21
246.806
  0
LINE
  8
0
 10
11
 20
246.806
 11
10.6125
 21
246.613
  0
LINE
  8
0
 10
10.6125
 20
246.613
 11
10.3875
 21
246.613
  0
LINE
  8
0
 10
10.3875
 20
246.613
 11
10.3875
 21
246.387
  0
LINE
  8
0
 10
10.3875
 20
246.387
 11
10.1937
 21
246
  0
LINE
  8
0
 10
10.1937
 20
246
 11
10.0458
 21
245.954
  0
LINE
  8
0
 10
10.0458
 20
245.954
 11
10.0458
 21
245.046
  0
LINE
  8
0
 10
10.0458
 20
245.046
 11
10.026
 21
245
  0
LINE
  8
0
 10
10.026
 20
245
 11
10.0166
 21
244.983
  0
LINE
  8
0
 10
10.0166
 20
244.983
 11
10
 21
244.613
  0
LINE
  8
0
 10
10
 20
244.613
 11
9.59166
 21
244.408
  0
LINE
  8
0
 10
9.59166
 20
244.408
 11
9.3875
 21
244
  0
LINE
  8
0
 10
9.3875
 20
244
 11
9.06738
 21
243.933
  0
LINE
  8
0
 10
9.06738
 20
243.933
 11
9.06738
 21
243.067
  0
LINE
  8
0
 10
9.06738
 20
243.067
 11
9.0369
 21
243
  0
LINE
  8
0
 10
9.0369
 20
243
 11
9.02242
 21
242.978
  0
LINE
  8
0
 10
9.02242
 20
242.978
 11
9.02242
 21
242.022
  0
LINE
  8
0
 10
9.02242
 20
242.022
 11
9.0161
 21
242
  0
LINE
  8
0
 10
9.0161
 20
242
 11
9.01273
 21
241.987
  0
LINE
  8
0
 10
9.01273
 20
241.987
 11
9
 21
241.859
  0
LINE
  8
0
 10
9
 20
241.859
 11
8.71817
 21
241.718
  0
LINE
  8
0
 10
8.71817
 20
241.718
 11
8.28181
 21
241.718
  0
LINE
  8
0
 10
8.28181
 20
241.718
 11
8.28181
 21
241.282
  0
LINE
  8
0
 10
8.28181
 20
241.282
 11
8.1409
 21
241
  0
LINE
  8
0
 10
8.1409
 20
241
 11
8.05466
 21
240.945
  0
LINE
  8
0
 10
8.05466
 20
240.945
 11
8.05466
 21
240.055
  0
LINE
  8
0
 10
8.05466
 20
240.055
 11
8.03391
 21
240
  0
LINE
  8
0
 10
8.03391
 20
240
 11
8.02182
 21
239.978
  0
LINE
  8
0
 10
8.02182
 20
239.978
 11
8.02182
 21
239.022
  0
LINE
  8
0
 10
8.02182
 20
239.022
 11
8.01608
 21
239
  0
LINE
  8
0
 10
8.01608
 20
239
 11
8.01353
 21
238.986
  0
LINE
  8
0
 10
8.01353
 20
238.986
 11
8
 21
238.613
  0
LINE
  8
0
 10
8
 20
238.613
 11
7.59166
 21
238.408
  0
LINE
  8
0
 10
7.59166
 20
238.408
 11
7.3875
 21
238
  0
LINE
  8
0
 10
7.3875
 20
238
 11
7.10333
 21
237.897
  0
LINE
  8
0
 10
7.10333
 20
237.897
 11
7.10333
 21
237.103
  0
LINE
  8
0
 10
7.10333
 20
237.103
 11
7.0596
 21
237
  0
LINE
  8
0
 10
7.0596
 20
237
 11
7.04132
 21
236.959
  0
LINE
  8
0
 10
7.04132
 20
236.959
 11
7.04132
 21
236.041
  0
LINE
  8
0
 10
7.04132
 20
236.041
 11
7.03163
 21
236
  0
LINE
  8
0
 10
7.03163
 20
236
 11
7.02719
 21
235.973
  0
LINE
  8
0
 10
7.02719
 20
235.973
 11
7.02719
 21
235.027
  0
LINE
  8
0
 10
7.02719
 20
235.027
 11
7.02383
 21
235
  0
LINE
  8
0
 10
7.02383
 20
235
 11
7.01839
 21
234.982
  0
LINE
  8
0
 10
7.01839
 20
234.982
 11
7.01839
 21
234.018
  0
LINE
  8
0
 10
7.01839
 20
234.018
 11
7.01495
 21
234
  0
LINE
  8
0
 10
7.01495
 20
234
 11
7.01433
 21
233.986
  0
LINE
  8
0
 10
7.01433
 20
233.986
 11
7.01433
 21
233.014
  0
LINE
  8
0
 10
7.01433
 20
233.014
 11
7.01375
 21
233
  0
LINE
  8
0
 10
7.01375
 20
233
 11
7.01254
 21
232.987
  0
LINE
  8
0
 10
7.01254
 20
232.987
 11
7
 21
232.225
  0
LINE
  8
0
 10
7
 20
232.225
 11
6.84999
 21
232.15
  0
LINE
  8
0
 10
6.84999
 20
232.15
 11
6.77499
 21
232
  0
LINE
  8
0
 10
6.77499
 20
232
 11
6.31
 21
231.69
  0
LINE
  8
0
 10
6.31
 20
231.69
 11
6.31
 21
231.31
  0
LINE
  8
0
 10
6.31
 20
231.31
 11
6.19374
 21
231
  0
LINE
  8
0
 10
6.19374
 20
231
 11
6.11481
 21
230.885
  0
LINE
  8
0
 10
6.11481
 20
230.885
 11
6.11481
 21
230.115
  0
LINE
  8
0
 10
6.11481
 20
230.115
 11
6.08157
 21
230
  0
LINE
  8
0
 10
6.08157
 20
230
 11
6.06888
 21
229.931
  0
LINE
  8
0
 10
6.06888
 20
229.931
 11
6.06888
 21
229.069
  0
LINE
  8
0
 10
6.06888
 20
229.069
 11
6.0596
 21
229
  0
LINE
  8
0
 10
6.0596
 20
229
 11
6.0451
 21
228.955
  0
LINE
  8
0
 10
6.0451
 20
228.955
 11
6.0451
 21
228.045
  0
LINE
  8
0
 10
6.0451
 20
228.045
 11
6.03629
 21
228
  0
LINE
  8
0
 10
6.03629
 20
228
 11
6.03381
 21
227.966
  0
LINE
  8
0
 10
6.03381
 20
227.966
 11
6.03381
 21
227.034
  0
LINE
  8
0
 10
6.03381
 20
227.034
 11
6.03168
 21
227
  0
LINE
  8
0
 10
6.03168
 20
227
 11
6.02794
 21
226.972
  0
LINE
  8
0
 10
6.02794
 20
226.972
 11
6.02794
 21
226.028
  0
LINE
  8
0
 10
6.02794
 20
226.028
 11
6.02499
 21
226
  0
LINE
  8
0
 10
6.02499
 20
226
 11
6.02171
 21
225.978
  0
LINE
  8
0
 10
6.02171
 20
225.978
 11
6.02171
 21
225.022
  0
LINE
  8
0
 10
6.02171
 20
225.022
 11
6.0192
 21
225
  0
LINE
  8
0
 10
6.0192
 20
225
 11
6.01863
 21
224.981
  0
LINE
  8
0
 10
6.01863
 20
224.981
 11
6.01863
 21
224.019
  0
LINE
  8
0
 10
6.01863
 20
224.019
 11
6.0181
 21
224
  0
LINE
  8
0
 10
6.0181
 20
224
 11
6.0146
 21
223.985
  0
LINE
  8
0
 10
6.0146
 20
223.985
 11
6.0146
 21
223.015
  0
LINE
  8
0
 10
6.0146
 20
223.015
 11
6.01224
 21
223
  0
LINE
  8
0
 10
6.01224
 20
223
 11
6.01204
 21
222.988
  0
LINE
  8
0
 10
6.01204
 20
222.988
 11
6.01204
 21
222.012
  0
LINE
  8
0
 10
6.01204
 20
222.012
 11
6.01186
 21
222
  0
LINE
  8
0
 10
6.01186
 20
222
 11
6.01155
 21
221.988
  0
LINE
  8
0
 10
6.01155
 20
221.988
 11
6.00415
 21
221.004
  0
LINE
  8
0
 10
6.00415
 20
221.004
 11
6.00398
 21
220.996
  0
LINE
  8
0
 10
6.00398
 20
220.996
 11
6
 21
220.863
  0
LINE
  8
0
 10
6
 20
220.863
 11
5.50714
 21
220.493
  0
LINE
  8
0
 10
5.50714
 20
220.493
 11
5.31
 21
220
  0
LINE
  8
0
 10
5.31
 20
220
 11
5.20667
 21
219.793
  0
LINE
  8
0
 10
5.20667
 20
219.793
 11
5.20667
 21
219.207
  0
LINE
  8
0
 10
5.20667
 20
219.207
 11
5.12399
 21
218.876
  0
LINE
  8
0
 10
5.12399
 20
218.876
 11
5.12399
 21
218.124
  0
LINE
  8
0
 10
5.12399
 20
218.124
 11
5.10333
 21
218
  0
LINE
  8
0
 10
5.10333
 20
218
 11
5.07381
 21
217.926
  0
LINE
  8
0
 10
5.07381
 20
217.926
 11
5.07381
 21
217.074
  0
LINE
  8
0
 10
5.07381
 20
217.074
 11
5.0574
 21
217
  0
LINE
  8
0
 10
5.0574
 20
217
 11
5.04999
 21
216.95
  0
LINE
  8
0
 10
5.04999
 20
216.95
 11
5.04999
 21
216.05
  0
LINE
  8
0
 10
5.04999
 20
216.05
 11
5.04428
 21
216
  0
LINE
  8
0
 10
5.04428
 20
216
 11
5.04079
 21
215.959
  0
LINE
  8
0
 10
5.04079
 20
215.959
 11
5.04079
 21
215.041
  0
LINE
  8
0
 10
5.04079
 20
215.041
 11
5.0378
 21
215
  0
LINE
  8
0
 10
5.0378
 20
215
 11
5.03204
 21
214.968
  0
LINE
  8
0
 10
5.03204
 20
214.968
 11
5.03204
 21
214.032
  0
LINE
  8
0
 10
5.03204
 20
214.032
 11
5.02782
 21
214
  0
LINE
  8
0
 10
5.02782
 20
214
 11
5.02533
 21
213.975
  0
LINE
  8
0
 10
5.02533
 20
213.975
 11
5.02533
 21
213.025
  0
LINE
  8
0
 10
5.02533
 20
213.025
 11
5.02325
 21
213
  0
LINE
  8
0
 10
5.02325
 20
213
 11
5.02269
 21
212.977
  0
LINE
  8
0
 10
5.02269
 20
212.977
 11
5.02269
 21
212.023
  0
LINE
  8
0
 10
5.02269
 20
212.023
 11
5.02216
 21
212
  0
LINE
  8
0
 10
5.02216
 20
212
 11
5.0195
 21
211.98
  0
LINE
  8
0
 10
5.0195
 20
211.98
 11
5.0195
 21
211.02
  0
LINE
  8
0
 10
5.0195
 20
211.02
 11
5.01743
 21
211
  0
LINE
  8
0
 10
5.01743
 20
211
 11
5.01521
 21
210.985
  0
LINE
  8
0
 10
5.01521
 20
210.985
 11
5.01521
 21
210.015
  0
LINE
  8
0
 10
5.01521
 20
210.015
 11
5.0135
 21
210
  0
LINE
  8
0
 10
5.0135
 20
210
 11
5.01323
 21
209.987
  0
LINE
  8
0
 10
5.01323
 20
209.987
 11
5.01323
 21
209.013
  0
LINE
  8
0
 10
5.01323
 20
209.013
 11
5.01299
 21
209
  0
LINE
  8
0
 10
5.01299
 20
209
 11
5.01266
 21
208.987
  0
LINE
  8
0
 10
5.01266
 20
208.987
 11
5.01266
 21
208.013
  0
LINE
  8
0
 10
5.01266
 20
208.013
 11
5.01236
 21
208
  0
LINE
  8
0
 10
5.01236
 20
208
 11
5.01158
 21
207.988
  0
LINE
  8
0
 10
5.01158
 20
207.988
 11
5.00417
 21
207.004
  0
LINE
  8
0
 10
5.00417
 20
207.004
 11
5.00392
 21
207
  0
LINE
  8
0
 10
5.00392
 20
207
 11
5
 21
206.817
  0
LINE
  8
0
 10
5
 20
206.817
 11
4.55453
 21
206.445
  0
LINE
  8
0
 10
4.55453
 20
206.445
 11
4.3875
 21
206
  0
LINE
  8
0
 10
4.3875
 20
206
 11
4.25833
 21
205.742
  0
LINE
  8
0
 10
4.25833
 20
205.742
 11
4.25833
 21
205.258
  0
LINE
  8
0
 10
4.25833
 20
205.258
 11
4.19374
 21
205
  0
LINE
  8
0
 10
4.19374
 20
205
 11
4.12399
 21
204.876
  0
LINE
  8
0
 10
4.12399
 20
204.876
 11
4.12399
 21
204.124
  0
LINE
  8
0
 10
4.12399
 20
204.124
 11
4.09117
 21
204
  0
LINE
  8
0
 10
4.09117
 20
204
 11
4.0775
 21
203.923
  0
LINE
  8
0
 10
4.0775
 20
203.923
 11
4.0775
 21
203.077
  0
LINE
  8
0
 10
4.0775
 20
203.077
 11
4.06738
 21
203
  0
LINE
  8
0
 10
4.06738
 20
203
 11
4.05994
 21
202.94
  0
LINE
  8
0
 10
4.05994
 20
202.94
 11
4.05994
 21
202.06
  0
LINE
  8
0
 10
4.05994
 20
202.06
 11
4.05397
 21
202
  0
LINE
  8
0
 10
4.05397
 20
202
 11
4.04578
 21
201.954
  0
LINE
  8
0
 10
4.04578
 20
201.954
 11
4.04578
 21
201.046
  0
LINE
  8
0
 10
4.04578
 20
201.046
 11
4.03973
 21
201
  0
LINE
  8
0
 10
4.03973
 20
201
 11
4.03494
 21
200.965
  0
LINE
  8
0
 10
4.03494
 20
200.965
 11
4.03494
 21
200.035
  0
LINE
  8
0
 10
4.03494
 20
200.035
 11
4.03117
 21
200
  0
LINE
  8
0
 10
4.03117
 20
200
 11
4.02968
 21
199.97
  0
LINE
  8
0
 10
4.02968
 20
199.97
 11
4.02968
 21
199.03
  0
LINE
  8
0
 10
4.02968
 20
199.03
 11
4.02832
 21
199
  0
LINE
  8
0
 10
4.02832
 20
199
 11
4.02678
 21
198.973
  0
LINE
  8
0
 10
4.02678
 20
198.973
 11
4.02678
 21
198.027
  0
LINE
  8
0
 10
4.02678
 20
198.027
 11
4.02541
 21
198
  0
LINE
  8
0
 10
4.02541
 20
198
 11
4.02084
 21
197.979
  0
LINE
  8
0
 10
4.02084
 20
197.979
 11
4.02084
 21
197.021
  0
LINE
  8
0
 10
4.02084
 20
197.021
 11
4.01767
 21
197
  0
LINE
  8
0
 10
4.01767
 20
197
 11
4.0173
 21
196.983
  0
LINE
  8
0
 10
4.0173
 20
196.983
 11
4.0173
 21
196.017
  0
LINE
  8
0
 10
4.0173
 20
196.017
 11
4.01665
 21
195.983
  0
LINE
  8
0
 10
4.01665
 20
195.983
 11
4.01665
 21
195.017
  0
LINE
  8
0
 10
4.01665
 20
195.017
 11
4.01634
 21
195
  0
LINE
  8
0
 10
4.01634
 20
195
 11
4.01401
 21
194.986
  0
LINE
  8
0
 10
4.01401
 20
194.986
 11
4.01401
 21
194.014
  0
LINE
  8
0
 10
4.01401
 20
194.014
 11
4.01225
 21
194
  0
LINE
  8
0
 10
4.01225
 20
194
 11
4.01152
 21
193.988
  0
LINE
  8
0
 10
4.01152
 20
193.988
 11
4.00627
 21
193.006
  0
LINE
  8
0
 10
4.00627
 20
193.006
 11
4.00591
 21
193
  0
LINE
  8
0
 10
4.00591
 20
193
 11
4.00584
 21
192.994
  0
LINE
  8
0
 10
4.00584
 20
192.994
 11
4.00386
 21
192.004
  0
LINE
  8
0
 10
4.00386
 20
192.004
 11
4
 21
191.725
  0
LINE
  8
0
 10
4
 20
191.725
 11
3.6375
 21
191.363
  0
LINE
  8
0
 10
3.6375
 20
191.363
 11
3.51666
 21
191
  0
LINE
  8
0
 10
3.51666
 20
191
 11
3.28181
 21
190.718
  0
LINE
  8
0
 10
3.28181
 20
190.718
 11
3.28181
 21
190.282
  0
LINE
  8
0
 10
3.28181
 20
190.282
 11
3.19374
 21
190
  0
LINE
  8
0
 10
3.19374
 20
190
 11
3.155
 21
189.845
  0
LINE
  8
0
 10
3.155
 20
189.845
 11
3.155
 21
189.155
  0
LINE
  8
0
 10
3.155
 20
189.155
 11
3.12917
 21
189
  0
LINE
  8
0
 10
3.12917
 20
189
 11
3.10689
 21
188.893
  0
LINE
  8
0
 10
3.10689
 20
188.893
 11
3.10689
 21
188.107
  0
LINE
  8
0
 10
3.10689
 20
188.107
 11
3.09117
 21
188
  0
LINE
  8
0
 10
3.09117
 20
188
 11
3.07381
 21
187.926
  0
LINE
  8
0
 10
3.07381
 20
187.926
 11
3.07381
 21
187.074
  0
LINE
  8
0
 10
3.07381
 20
187.074
 11
3.062
 21
187
  0
LINE
  8
0
 10
3.062
 20
187
 11
3.05167
 21
186.948
  0
LINE
  8
0
 10
3.05167
 20
186.948
 11
3.05167
 21
186.052
  0
LINE
  8
0
 10
3.05167
 20
186.052
 11
3.04428
 21
186
  0
LINE
  8
0
 10
3.04428
 20
186
 11
3.04094
 21
185.959
  0
LINE
  8
0
 10
3.04094
 20
185.959
 11
3.04094
 21
185.041
  0
LINE
  8
0
 10
3.04094
 20
185.041
 11
3.03806
 21
185
  0
LINE
  8
0
 10
3.03806
 20
185
 11
3.03659
 21
184.963
  0
LINE
  8
0
 10
3.03659
 20
184.963
 11
3.03659
 21
184.037
  0
LINE
  8
0
 10
3.03659
 20
184.037
 11
3.03522
 21
184
  0
LINE
  8
0
 10
3.03522
 20
184
 11
3.02896
 21
183.971
  0
LINE
  8
0
 10
3.02896
 20
183.971
 11
3.02896
 21
183.029
  0
LINE
  8
0
 10
3.02896
 20
183.029
 11
3.0246
 21
183
  0
LINE
  8
0
 10
3.0246
 20
183
 11
3.02313
 21
182.977
  0
LINE
  8
0
 10
3.02313
 20
182.977
 11
3.02313
 21
182.023
  0
LINE
  8
0
 10
3.02313
 20
182.023
 11
3.02182
 21
182
  0
LINE
  8
0
 10
3.02182
 20
182
 11
3.02141
 21
181.979
  0
LINE
  8
0
 10
3.02141
 20
181.979
 11
3.02141
 21
181.021
  0
LINE
  8
0
 10
3.02141
 20
181.021
 11
3.02103
 21
181
  0
LINE
  8
0
 10
3.02103
 20
181
 11
3.0206
 21
180.979
  0
LINE
  8
0
 10
3.0206
 20
180.979
 11
3.0206
 21
180.021
  0
LINE
  8
0
 10
3.0206
 20
180.021
 11
3.0202
 21
180
  0
LINE
  8
0
 10
3.0202
 20
180
 11
3.0162
 21
179.984
  0
LINE
  8
0
 10
3.0162
 20
179.984
 11
3.0162
 21
179.016
  0
LINE
  8
0
 10
3.0162
 20
179.016
 11
3.01353
 21
179
  0
LINE
  8
0
 10
3.01353
 20
179
 11
3.01317
 21
178.987
  0
LINE
  8
0
 10
3.01317
 20
178.987
 11
3.01317
 21
178.013
  0
LINE
  8
0
 10
3.01317
 20
178.013
 11
3.01283
 21
178
  0
LINE
  8
0
 10
3.01283
 20
178
 11
3.01279
 21
177.987
  0
LINE
  8
0
 10
3.01279
 20
177.987
 11
3.01279
 21
177.013
  0
LINE
  8
0
 10
3.01279
 20
177.013
 11
3.01274
 21
177
  0
LINE
  8
0
 10
3.01274
 20
177
 11
3.01254
 21
176.987
  0
LINE
  8
0
 10
3.01254
 20
176.987
 11
3.01254
 21
176.013
  0
LINE
  8
0
 10
3.01254
 20
176.013
 11
3.01236
 21
176
  0
LINE
  8
0
 10
3.01236
 20
176
 11
3.01233
 21
175
  0
LINE
  8
0
 10
3.01233
 20
175
 11
3.01192
 21
174.988
  0
LINE
  8
0
 10
3.01192
 20
174.988
 11
3.00429
 21
174.004
  0
LINE
  8
0
 10
3.00429
 20
174.004
 11
3.00415
 21
174
  0
LINE
  8
0
 10
3.00415
 20
174
 11
3
 21
173.725
  0
LINE
  8
0
 10
3
 20
173.725
 11
2.6375
 21
173.363
  0
LINE
  8
0
 10
2.6375
 20
173.363
 11
2.3875
 21
172.613
  0
LINE
  8
0
 10
2.3875
 20
172.613
 11
2.3875
 21
172.387
  0
LINE
  8
0
 10
2.3875
 20
172.387
 11
2.31
 21
172
  0
LINE
  8
0
 10
2.31
 20
172
 11
2.24379
 21
171.756
  0
LINE
  8
0
 10
2.24379
 20
171.756
 11
2.24379
 21
171.244
  0
LINE
  8
0
 10
2.24379
 20
171.244
 11
2.2009
 21
171
  0
LINE
  8
0
 10
2.2009
 20
171
 11
2.17499
 21
170.825
  0
LINE
  8
0
 10
2.17499
 20
170.825
 11
2.17499
 21
170.175
  0
LINE
  8
0
 10
2.17499
 20
170.175
 11
2.155
 21
170
  0
LINE
  8
0
 10
2.155
 20
170
 11
2.13071
 21
169.869
  0
LINE
  8
0
 10
2.13071
 20
169.869
 11
2.13071
 21
169.131
  0
LINE
  8
0
 10
2.13071
 20
169.131
 11
2.11301
 21
169
  0
LINE
  8
0
 10
2.11301
 20
169
 11
2.08929
 21
168.911
  0
LINE
  8
0
 10
2.08929
 20
168.911
 11
2.08929
 21
168.089
  0
LINE
  8
0
 10
2.08929
 20
168.089
 11
2.07381
 21
168
  0
LINE
  8
0
 10
2.07381
 20
168
 11
2.06888
 21
167.931
  0
LINE
  8
0
 10
2.06888
 20
167.931
 11
2.06888
 21
167.069
  0
LINE
  8
0
 10
2.06888
 20
167.069
 11
2.06078
 21
166.939
  0
LINE
  8
0
 10
2.06078
 20
166.939
 11
2.06078
 21
166.061
  0
LINE
  8
0
 10
2.06078
 20
166.061
 11
2.05438
 21
165.946
  0
LINE
  8
0
 10
2.05438
 20
165.946
 11
2.05438
 21
165.054
  0
LINE
  8
0
 10
2.05438
 20
165.054
 11
2.04919
 21
164.951
  0
LINE
  8
0
 10
2.04919
 20
164.951
 11
2.04919
 21
164.049
  0
LINE
  8
0
 10
2.04919
 20
164.049
 11
2.04697
 21
164
  0
LINE
  8
0
 10
2.04697
 20
164
 11
2.04626
 21
163.954
  0
LINE
  8
0
 10
2.04626
 20
163.954
 11
2.04626
 21
163.046
  0
LINE
  8
0
 10
2.04626
 20
163.046
 11
2.04558
 21
163
  0
LINE
  8
0
 10
2.04558
 20
163
 11
2.04132
 21
162.959
  0
LINE
  8
0
 10
2.04132
 20
162.959
 11
2.04132
 21
162.041
  0
LINE
  8
0
 10
2.04132
 20
162.041
 11
2.0378
 21
162
  0
LINE
  8
0
 10
2.0378
 20
162
 11
2.03409
 21
161.966
  0
LINE
  8
0
 10
2.03409
 20
161.966
 11
2.03409
 21
161.034
  0
LINE
  8
0
 10
2.03409
 20
161.034
 11
2.03104
 21
161
  0
LINE
  8
0
 10
2.03104
 20
161
 11
2.03049
 21
160.969
  0
LINE
  8
0
 10
2.03049
 20
160.969
 11
2.03049
 21
160.031
  0
LINE
  8
0
 10
2.03049
 20
160.031
 11
2.02997
 21
160
  0
LINE
  8
0
 10
2.02997
 20
160
 11
2.02931
 21
159.971
  0
LINE
  8
0
 10
2.02931
 20
159.971
 11
2.02931
 21
159.029
  0
LINE
  8
0
 10
2.02931
 20
159.029
 11
2.0287
 21
159
  0
LINE
  8
0
 10
2.0287
 20
159
 11
2.0282
 21
158.972
  0
LINE
  8
0
 10
2.0282
 20
158.972
 11
2.0282
 21
158.028
  0
LINE
  8
0
 10
2.0282
 20
158.028
 11
2.02727
 21
157.973
  0
LINE
  8
0
 10
2.02727
 20
157.973
 11
2.02727
 21
157.027
  0
LINE
  8
0
 10
2.02727
 20
157.027
 11
2.02686
 21
157
  0
LINE
  8
0
 10
2.02686
 20
157
 11
2.02657
 21
156.973
  0
LINE
  8
0
 10
2.02657
 20
156.973
 11
2.02657
 21
156.027
  0
LINE
  8
0
 10
2.02657
 20
156.027
 11
2.02629
 21
156
  0
LINE
  8
0
 10
2.02629
 20
156
 11
2.02612
 21
155.974
  0
LINE
  8
0
 10
2.02612
 20
155.974
 11
2.02612
 21
155.026
  0
LINE
  8
0
 10
2.02612
 20
155.026
 11
2.02596
 21
155
  0
LINE
  8
0
 10
2.02596
 20
155
 11
2.02567
 21
154.974
  0
LINE
  8
0
 10
2.02567
 20
154.974
 11
2.02567
 21
154.026
  0
LINE
  8
0
 10
2.02567
 20
154.026
 11
2.02541
 21
154
  0
LINE
  8
0
 10
2.02541
 20
154
 11
2.02296
 21
153.977
  0
LINE
  8
0
 10
2.02296
 20
153.977
 11
2.02296
 21
153.023
  0
LINE
  8
0
 10
2.02296
 20
153.023
 11
2.02097
 21
153
  0
LINE
  8
0
 10
2.02097
 20
153
 11
2.01881
 21
152.981
  0
LINE
  8
0
 10
2.01881
 20
152.981
 11
2.01881
 21
152.019
  0
LINE
  8
0
 10
2.01881
 20
152.019
 11
2.01707
 21
152
  0
LINE
  8
0
 10
2.01707
 20
152
 11
2.01704
 21
151.983
  0
LINE
  8
0
 10
2.01704
 20
151.983
 11
2.01704
 21
151.017
  0
LINE
  8
0
 10
2.01704
 20
151.017
 11
2.01697
 21
150.983
  0
LINE
  8
0
 10
2.01697
 20
150.983
 11
2.01697
 21
150.017
  0
LINE
  8
0
 10
2.01697
 20
150.017
 11
2.01689
 21
149.983
  0
LINE
  8
0
 10
2.01689
 20
149.983
 11
2.01689
 21
149.017
  0
LINE
  8
0
 10
2.01689
 20
149.017
 11
2.01685
 21
149
  0
LINE
  8
0
 10
2.01685
 20
149
 11
2.01669
 21
148.983
  0
LINE
  8
0
 10
2.01669
 20
148.983
 11
2.01669
 21
148.017
  0
LINE
  8
0
 10
2.01669
 20
148.017
 11
2.01654
 21
148
  0
LINE
  8
0
 10
2.01654
 20
148
 11
2.0166
 21
147.983
  0
LINE
  8
0
 10
2.0166
 20
147.983
 11
2.0166
 21
147.017
  0
LINE
  8
0
 10
2.0166
 20
147.017
 11
2.01668
 21
147
  0
LINE
  8
0
 10
2.01668
 20
147
 11
2.01651
 21
146.983
  0
LINE
  8
0
 10
2.01651
 20
146.983
 11
2.01651
 21
146.017
  0
LINE
  8
0
 10
2.01651
 20
146.017
 11
2.01636
 21
146
  0
LINE
  8
0
 10
2.01636
 20
146
 11
2.01636
 21
145
  0
LINE
  8
0
 10
2.01636
 20
145
 11
2.01639
 21
144.984
  0
LINE
  8
0
 10
2.01639
 20
144.984
 11
2.01642
 21
143.016
  0
LINE
  8
0
 10
2.01642
 20
143.016
 11
2.01645
 21
143
  0
LINE
  8
0
 10
2.01645
 20
143
 11
2.01642
 21
142.984
  0
LINE
  8
0
 10
2.01642
 20
142.984
 11
2.01642
 21
142.016
  0
LINE
  8
0
 10
2.01642
 20
142.016
 11
2.01636
 21
141.984
  0
LINE
  8
0
 10
2.01636
 20
141.984
 11
2.01636
 21
141.016
  0
LINE
  8
0
 10
2.01636
 20
141.016
 11
2.01633
 21
141
  0
LINE
  8
0
 10
2.01633
 20
141
 11
2.01636
 21
140
  0
LINE
  8
0
 10
2.01636
 20
140
 11
2.01627
 21
139.984
  0
LINE
  8
0
 10
2.01627
 20
139.984
 11
2.01627
 21
139.016
  0
LINE
  8
0
 10
2.01627
 20
139.016
 11
2.01614
 21
138.984
  0
LINE
  8
0
 10
2.01614
 20
138.984
 11
2.01614
 21
138.016
  0
LINE
  8
0
 10
2.01614
 20
138.016
 11
2.01611
 21
138
  0
LINE
  8
0
 10
2.01611
 20
138
 11
2.01617
 21
137.984
  0
LINE
  8
0
 10
2.01617
 20
137.984
 11
2.01617
 21
137.016
  0
LINE
  8
0
 10
2.01617
 20
137.016
 11
2.01624
 21
137
  0
LINE
  8
0
 10
2.01624
 20
137
 11
2.0162
 21
136.984
  0
LINE
  8
0
 10
2.0162
 20
136.984
 11
2.0162
 21
136.016
  0
LINE
  8
0
 10
2.0162
 20
136.016
 11
2.01616
 21
135.984
  0
LINE
  8
0
 10
2.01616
 20
135.984
 11
2.01614
 21
135
  0
LINE
  8
0
 10
2.01614
 20
135
 11
2.01617
 21
134.984
  0
LINE
  8
0
 10
2.01617
 20
134.984
 11
2.01617
 21
134.016
  0
LINE
  8
0
 10
2.01617
 20
134.016
 11
2.0162
 21
134
  0
LINE
  8
0
 10
2.0162
 20
134
 11
2.01619
 21
132
  0
LINE
  8
0
 10
2.01619
 20
132
 11
2.0161
 21
131.984
  0
LINE
  8
0
 10
2.0161
 20
131.984
 11
2.0161
 21
131.016
  0
LINE
  8
0
 10
2.0161
 20
131.016
 11
2.01602
 21
131
  0
LINE
  8
0
 10
2.01602
 20
131
 11
2.01602
 21
130
  0
LINE
  8
0
 10
2.01602
 20
130
 11
2.01613
 21
129.984
  0
LINE
  8
0
 10
2.01613
 20
129.984
 11
2.01613
 21
129.016
  0
LINE
  8
0
 10
2.01613
 20
129.016
 11
2.01625
 21
129
  0
LINE
  8
0
 10
2.01625
 20
129
 11
2.01625
 21
128
  0
LINE
  8
0
 10
2.01625
 20
128
 11
2.0163
 21
127.984
  0
LINE
  8
0
 10
2.0163
 20
127.984
 11
2.0163
 21
127.016
  0
LINE
  8
0
 10
2.0163
 20
127.016
 11
2.01636
 21
127
  0
LINE
  8
0
 10
2.01636
 20
127
 11
2.01646
 21
126.984
  0
LINE
  8
0
 10
2.01646
 20
126.984
 11
2.01646
 21
126.016
  0
LINE
  8
0
 10
2.01646
 20
126.016
 11
2.01657
 21
126
  0
LINE
  8
0
 10
2.01657
 20
126
 11
2.01646
 21
125.984
  0
LINE
  8
0
 10
2.01646
 20
125.984
 11
2.01646
 21
125.016
  0
LINE
  8
0
 10
2.01646
 20
125.016
 11
2.01636
 21
125
  0
LINE
  8
0
 10
2.01636
 20
125
 11
2.01645
 21
124.984
  0
LINE
  8
0
 10
2.01645
 20
124.984
 11
2.01645
 21
124.016
  0
LINE
  8
0
 10
2.01645
 20
124.016
 11
2.01653
 21
124
  0
LINE
  8
0
 10
2.01653
 20
124
 11
2.01639
 21
123.984
  0
LINE
  8
0
 10
2.01639
 20
123.984
 11
2.01639
 21
123.016
  0
LINE
  8
0
 10
2.01639
 20
123.016
 11
2.01625
 21
123
  0
LINE
  8
0
 10
2.01625
 20
123
 11
2.01624
 21
122
  0
LINE
  8
0
 10
2.01624
 20
122
 11
2.01639
 21
121.984
  0
LINE
  8
0
 10
2.01639
 20
121.984
 11
2.01639
 21
121.016
  0
LINE
  8
0
 10
2.01639
 20
121.016
 11
2.01653
 21
121
  0
LINE
  8
0
 10
2.01653
 20
121
 11
2.01653
 21
120
  0
LINE
  8
0
 10
2.01653
 20
120
 11
2.01656
 21
119.983
  0
LINE
  8
0
 10
2.01656
 20
119.983
 11
2.01656
 21
119.017
  0
LINE
  8
0
 10
2.01656
 20
119.017
 11
2.01659
 21
119
  0
LINE
  8
0
 10
2.01659
 20
119
 11
2.01657
 21
117
  0
LINE
  8
0
 10
2.01657
 20
117
 11
2.01665
 21
116.983
  0
LINE
  8
0
 10
2.01665
 20
116.983
 11
2.01665
 21
116.017
  0
LINE
  8
0
 10
2.01665
 20
116.017
 11
2.01672
 21
116
  0
LINE
  8
0
 10
2.01672
 20
116
 11
2.01691
 21
115.983
  0
LINE
  8
0
 10
2.01691
 20
115.983
 11
2.01691
 21
115.017
  0
LINE
  8
0
 10
2.01691
 20
115.017
 11
2.01707
 21
115
  0
LINE
  8
0
 10
2.01707
 20
115
 11
2.017
 21
114.983
  0
LINE
  8
0
 10
2.017
 20
114.983
 11
2.017
 21
114.017
  0
LINE
  8
0
 10
2.017
 20
114.017
 11
2.01694
 21
114
  0
LINE
  8
0
 10
2.01694
 20
114
 11
2.01711
 21
113.983
  0
LINE
  8
0
 10
2.01711
 20
113.983
 11
2.01711
 21
113.017
  0
LINE
  8
0
 10
2.01711
 20
113.017
 11
2.01727
 21
113
  0
LINE
  8
0
 10
2.01727
 20
113
 11
2.01738
 21
112.983
  0
LINE
  8
0
 10
2.01738
 20
112.983
 11
2.01738
 21
112.017
  0
LINE
  8
0
 10
2.01738
 20
112.017
 11
2.01747
 21
112
  0
LINE
  8
0
 10
2.01747
 20
112
 11
2.01886
 21
111.981
  0
LINE
  8
0
 10
2.01886
 20
111.981
 11
2.01886
 21
111.019
  0
LINE
  8
0
 10
2.01886
 20
111.019
 11
2.02046
 21
111
  0
LINE
  8
0
 10
2.02046
 20
111
 11
2.02283
 21
110.977
  0
LINE
  8
0
 10
2.02283
 20
110.977
 11
2.02283
 21
110.023
  0
LINE
  8
0
 10
2.02283
 20
110.023
 11
2.02583
 21
110
  0
LINE
  8
0
 10
2.02583
 20
110
 11
2.02609
 21
109.974
  0
LINE
  8
0
 10
2.02609
 20
109.974
 11
2.02609
 21
109.026
  0
LINE
  8
0
 10
2.02609
 20
109.026
 11
2.02635
 21
109
  0
LINE
  8
0
 10
2.02635
 20
109
 11
2.02676
 21
108.973
  0
LINE
  8
0
 10
2.02676
 20
108.973
 11
2.02676
 21
108.027
  0
LINE
  8
0
 10
2.02676
 20
108.027
 11
2.02719
 21
108
  0
LINE
  8
0
 10
2.02719
 20
108
 11
2.02745
 21
107.973
  0
LINE
  8
0
 10
2.02745
 20
107.973
 11
2.02745
 21
107.027
  0
LINE
  8
0
 10
2.02745
 20
107.027
 11
2.02802
 21
106.972
  0
LINE
  8
0
 10
2.02802
 20
106.972
 11
2.02802
 21
106.028
  0
LINE
  8
0
 10
2.02802
 20
106.028
 11
2.02832
 21
106
  0
LINE
  8
0
 10
2.02832
 20
106
 11
2.02931
 21
105.971
  0
LINE
  8
0
 10
2.02931
 20
105.971
 11
2.02931
 21
105.029
  0
LINE
  8
0
 10
2.02931
 20
105.029
 11
2.03038
 21
105
  0
LINE
  8
0
 10
2.03038
 20
105
 11
2.03078
 21
104.969
  0
LINE
  8
0
 10
2.03078
 20
104.969
 11
2.03078
 21
104.031
  0
LINE
  8
0
 10
2.03078
 20
104.031
 11
2.03117
 21
104
  0
LINE
  8
0
 10
2.03117
 20
104
 11
2.03427
 21
103.966
  0
LINE
  8
0
 10
2.03427
 20
103.966
 11
2.03427
 21
103.034
  0
LINE
  8
0
 10
2.03427
 20
103.034
 11
2.03806
 21
103
  0
LINE
  8
0
 10
2.03806
 20
103
 11
2.04205
 21
102.958
  0
LINE
  8
0
 10
2.04205
 20
102.958
 11
2.04205
 21
102.042
  0
LINE
  8
0
 10
2.04205
 20
102.042
 11
2.04697
 21
102
  0
LINE
  8
0
 10
2.04697
 20
102
 11
2.04843
 21
101.952
  0
LINE
  8
0
 10
2.04843
 20
101.952
 11
2.04843
 21
101.048
  0
LINE
  8
0
 10
2.04843
 20
101.048
 11
2.04999
 21
101
  0
LINE
  8
0
 10
2.04999
 20
101
 11
2.05254
 21
100.947
  0
LINE
  8
0
 10
2.05254
 20
100.947
 11
2.05254
 21
100.053
  0
LINE
  8
0
 10
2.05254
 20
100.053
 11
2.05849
 21
99.9415
  0
LINE
  8
0
 10
2.05849
 20
99.9415
 11
2.05849
 21
99.0585
  0
LINE
  8
0
 10
2.05849
 20
99.0585
 11
2.062
 21
99
  0
LINE
  8
0
 10
2.062
 20
99
 11
2.06458
 21
98.9354
  0
LINE
  8
0
 10
2.06458
 20
98.9354
 11
2.06458
 21
98.0646
  0
LINE
  8
0
 10
2.06458
 20
98.0646
 11
2.06738
 21
98
  0
LINE
  8
0
 10
2.06738
 20
98
 11
2.07381
 21
97.9262
  0
LINE
  8
0
 10
2.07381
 20
97.9262
 11
2.07381
 21
97.0738
  0
LINE
  8
0
 10
2.07381
 20
97.0738
 11
2.08157
 21
97
  0
LINE
  8
0
 10
2.08157
 20
97
 11
2.10333
 21
96.8967
  0
LINE
  8
0
 10
2.10333
 20
96.8967
 11
2.10333
 21
96.1033
  0
LINE
  8
0
 10
2.10333
 20
96.1033
 11
2.1409
 21
96
  0
LINE
  8
0
 10
2.1409
 20
96
 11
2.155
 21
95.845
  0
LINE
  8
0
 10
2.155
 20
95.845
 11
2.155
 21
95.155
  0
LINE
  8
0
 10
2.155
 20
95.155
 11
2.19374
 21
94.8062
  0
LINE
  8
0
 10
2.19374
 20
94.8062
 11
2.19374
 21
94.1937
  0
LINE
  8
0
 10
2.19374
 20
94.1937
 11
2.22142
 21
94
  0
LINE
  8
0
 10
2.22142
 20
94
 11
2.28181
 21
93.7182
  0
LINE
  8
0
 10
2.28181
 20
93.7182
 11
2.28181
 21
93.2818
  0
LINE
  8
0
 10
2.28181
 20
93.2818
 11
2.3875
 21
93
  0
LINE
  8
0
 10
2.3875
 20
93
 11
2.50999
 21
92.51
  0
LINE
  8
0
 10
2.50999
 20
92.51
 11
2.54999
 21
92.45
  0
LINE
  8
0
 10
2.54999
 20
92.45
 11
2.77499
 21
92
  0
LINE
  8
0
 10
2.77499
 20
92
 11
2.81999
 21
91.82
  0
LINE
  8
0
 10
2.81999
 20
91.82
 11
3
 21
91.55
  0
LINE
  8
0
 10
3
 20
91.55
 11
3.00433
 21
91
  0
LINE
  8
0
 10
3.00433
 20
91
 11
3.00449
 21
90.9955
  0
LINE
  8
0
 10
3.00449
 20
90.9955
 11
3.01244
 21
90.0124
  0
LINE
  8
0
 10
3.01244
 20
90.0124
 11
3.01285
 21
90
  0
LINE
  8
0
 10
3.01285
 20
90
 11
3.013
 21
89.987
  0
LINE
  8
0
 10
3.013
 20
89.987
 11
3.013
 21
89.013
  0
LINE
  8
0
 10
3.013
 20
89.013
 11
3.01317
 21
89
  0
LINE
  8
0
 10
3.01317
 20
89
 11
3.01323
 21
88.9868
  0
LINE
  8
0
 10
3.01323
 20
88.9868
 11
3.01323
 21
88.0132
  0
LINE
  8
0
 10
3.01323
 20
88.0132
 11
3.01331
 21
88
  0
LINE
  8
0
 10
3.01331
 20
88
 11
3.01343
 21
87.9866
  0
LINE
  8
0
 10
3.01343
 20
87.9866
 11
3.01343
 21
87.0134
  0
LINE
  8
0
 10
3.01343
 20
87.0134
 11
3.01355
 21
87
  0
LINE
  8
0
 10
3.01355
 20
87
 11
3.01357
 21
86
  0
LINE
  8
0
 10
3.01357
 20
86
 11
3.01566
 21
85.9843
  0
LINE
  8
0
 10
3.01566
 20
85.9843
 11
3.01566
 21
85.0157
  0
LINE
  8
0
 10
3.01566
 20
85.0157
 11
3.01851
 21
85
  0
LINE
  8
0
 10
3.01851
 20
85
 11
3.01994
 21
84.9801
  0
LINE
  8
0
 10
3.01994
 20
84.9801
 11
3.01994
 21
84.0199
  0
LINE
  8
0
 10
3.01994
 20
84.0199
 11
3.02161
 21
84
  0
LINE
  8
0
 10
3.02161
 20
84
 11
3.02205
 21
83.9779
  0
LINE
  8
0
 10
3.02205
 20
83.9779
 11
3.02205
 21
83.0221
  0
LINE
  8
0
 10
3.02205
 20
83.0221
 11
3.02299
 21
82.977
  0
LINE
  8
0
 10
3.02299
 20
82.977
 11
3.02299
 21
82.023
  0
LINE
  8
0
 10
3.02299
 20
82.023
 11
3.02348
 21
82
  0
LINE
  8
0
 10
3.02348
 20
82
 11
3.02695
 21
81.973
  0
LINE
  8
0
 10
3.02695
 20
81.973
 11
3.02695
 21
81.0269
  0
LINE
  8
0
 10
3.02695
 20
81.0269
 11
3.03163
 21
81
  0
LINE
  8
0
 10
3.03163
 20
81
 11
3.03455
 21
80.9654
  0
LINE
  8
0
 10
3.03455
 20
80.9654
 11
3.03455
 21
80.0345
  0
LINE
  8
0
 10
3.03455
 20
80.0345
 11
3.03806
 21
80
  0
LINE
  8
0
 10
3.03806
 20
80
 11
3.03999
 21
79.96
  0
LINE
  8
0
 10
3.03999
 20
79.96
 11
3.03999
 21
79.04
  0
LINE
  8
0
 10
3.03999
 20
79.04
 11
3.04213
 21
79
  0
LINE
  8
0
 10
3.04213
 20
79
 11
3.04784
 21
78.9521
  0
LINE
  8
0
 10
3.04784
 20
78.9521
 11
3.04784
 21
78.0479
  0
LINE
  8
0
 10
3.04784
 20
78.0479
 11
3.05534
 21
78
  0
LINE
  8
0
 10
3.05534
 20
78
 11
3.06738
 21
77.9326
  0
LINE
  8
0
 10
3.06738
 20
77.9326
 11
3.06738
 21
77.0674
  0
LINE
  8
0
 10
3.06738
 20
77.0674
 11
3.08611
 21
77
  0
LINE
  8
0
 10
3.08611
 20
77
 11
3.09686
 21
76.9031
  0
LINE
  8
0
 10
3.09686
 20
76.9031
 11
3.09686
 21
76.0969
  0
LINE
  8
0
 10
3.09686
 20
76.0969
 11
3.1107
 21
76
  0
LINE
  8
0
 10
3.1107
 20
76
 11
3.13478
 21
75.8652
  0
LINE
  8
0
 10
3.13478
 20
75.8652
 11
3.13478
 21
75.1348
  0
LINE
  8
0
 10
3.13478
 20
75.1348
 11
3.17221
 21
75
  0
LINE
  8
0
 10
3.17221
 20
75
 11
3.22142
 21
74.7786
  0
LINE
  8
0
 10
3.22142
 20
74.7786
 11
3.22142
 21
74.2214
  0
LINE
  8
0
 10
3.22142
 20
74.2214
 11
3.31
 21
74
  0
LINE
  8
0
 10
3.31
 20
74
 11
3.44286
 21
73.5571
  0
LINE
  8
0
 10
3.44286
 20
73.5571
 11
3.44286
 21
73.4429
  0
LINE
  8
0
 10
3.44286
 20
73.4429
 11
3.77499
 21
73
  0
LINE
  8
0
 10
3.77499
 20
73
 11
3.81999
 21
72.82
  0
LINE
  8
0
 10
3.81999
 20
72.82
 11
4
 21
72.55
  0
LINE
  8
0
 10
4
 20
72.55
 11
4.00404
 21
72.0041
  0
LINE
  8
0
 10
4.00404
 20
72.0041
 11
4.0042
 21
71.9958
  0
LINE
  8
0
 10
4.0042
 20
71.9958
 11
4.01166
 21
71.0117
  0
LINE
  8
0
 10
4.01166
 20
71.0117
 11
4.01186
 21
71
  0
LINE
  8
0
 10
4.01186
 20
71
 11
4.01218
 21
70.9878
  0
LINE
  8
0
 10
4.01218
 20
70.9878
 11
4.01218
 21
70.0122
  0
LINE
  8
0
 10
4.01218
 20
70.0122
 11
4.01253
 21
70
  0
LINE
  8
0
 10
4.01253
 20
70
 11
4.01447
 21
69.9855
  0
LINE
  8
0
 10
4.01447
 20
69.9855
 11
4.01447
 21
69.0145
  0
LINE
  8
0
 10
4.01447
 20
69.0145
 11
4.01714
 21
69
  0
LINE
  8
0
 10
4.01714
 20
69
 11
4.0174
 21
68.9826
  0
LINE
  8
0
 10
4.0174
 20
68.9826
 11
4.0174
 21
68.0174
  0
LINE
  8
0
 10
4.0174
 20
68.0174
 11
4.01767
 21
68
  0
LINE
  8
0
 10
4.01767
 20
68
 11
4.01807
 21
67.9819
  0
LINE
  8
0
 10
4.01807
 20
67.9819
 11
4.01807
 21
67.0181
  0
LINE
  8
0
 10
4.01807
 20
67.0181
 11
4.01849
 21
67
  0
LINE
  8
0
 10
4.01849
 20
67
 11
4.01945
 21
66.9805
  0
LINE
  8
0
 10
4.01945
 20
66.9805
 11
4.01945
 21
66.0195
  0
LINE
  8
0
 10
4.01945
 20
66.0195
 11
4.02052
 21
66
  0
LINE
  8
0
 10
4.02052
 20
66
 11
4.02376
 21
65.9762
  0
LINE
  8
0
 10
4.02376
 20
65.9762
 11
4.02376
 21
65.0238
  0
LINE
  8
0
 10
4.02376
 20
65.0238
 11
4.02821
 21
65
  0
LINE
  8
0
 10
4.02821
 20
65
 11
4.02873
 21
64.9713
  0
LINE
  8
0
 10
4.02873
 20
64.9713
 11
4.02873
 21
64.0287
  0
LINE
  8
0
 10
4.02873
 20
64.0287
 11
4.02928
 21
64
  0
LINE
  8
0
 10
4.02928
 20
64
 11
4.03049
 21
63.9695
  0
LINE
  8
0
 10
4.03049
 20
63.9695
 11
4.03049
 21
63.0305
  0
LINE
  8
0
 10
4.03049
 20
63.0305
 11
4.03181
 21
63
  0
LINE
  8
0
 10
4.03181
 20
63
 11
4.03455
 21
62.9654
  0
LINE
  8
0
 10
4.03455
 20
62.9654
 11
4.03455
 21
62.0345
  0
LINE
  8
0
 10
4.03455
 20
62.0345
 11
4.0378
 21
62
  0
LINE
  8
0
 10
4.0378
 20
62
 11
4.04428
 21
61.9557
  0
LINE
  8
0
 10
4.04428
 20
61.9557
 11
4.04428
 21
61.0443
  0
LINE
  8
0
 10
4.04428
 20
61.0443
 11
4.05344
 21
61
  0
LINE
  8
0
 10
4.05344
 20
61
 11
4.05872
 21
60.9413
  0
LINE
  8
0
 10
4.05872
 20
60.9413
 11
4.05872
 21
60.0587
  0
LINE
  8
0
 10
4.05872
 20
60.0587
 11
4.06516
 21
60
  0
LINE
  8
0
 10
4.06516
 20
60
 11
4.07599
 21
59.924
  0
LINE
  8
0
 10
4.07599
 20
59.924
 11
4.07599
 21
59.076
  0
LINE
  8
0
 10
4.07599
 20
59.076
 11
4.09117
 21
59
  0
LINE
  8
0
 10
4.09117
 20
59
 11
4.12917
 21
58.8708
  0
LINE
  8
0
 10
4.12917
 20
58.8708
 11
4.12917
 21
58.1292
  0
LINE
  8
0
 10
4.12917
 20
58.1292
 11
4.22142
 21
58
  0
LINE
  8
0
 10
4.22142
 20
58
 11
4.31
 21
57.69
  0
LINE
  8
0
 10
4.31
 20
57.69
 11
4.31
 21
57.31
  0
LINE
  8
0
 10
4.31
 20
57.31
 11
4.51666
 21
57
  0
LINE
  8
0
 10
4.51666
 20
57
 11
4.6375
 21
56.6375
  0
LINE
  8
0
 10
4.6375
 20
56.6375
 11
5
 21
56.275
  0
LINE
  8
0
 10
5
 20
56.275
 11
5.0043
 21
56.0043
  0
LINE
  8
0
 10
5.0043
 20
56.0043
 11
5.00444
 21
56
  0
LINE
  8
0
 10
5.00444
 20
56
 11
5.0047
 21
55.9953
  0
LINE
  8
0
 10
5.0047
 20
55.9953
 11
5.01303
 21
55.013
  0
LINE
  8
0
 10
5.01303
 20
55.013
 11
5.01381
 21
55
  0
LINE
  8
0
 10
5.01381
 20
55
 11
5.01401
 21
54.986
  0
LINE
  8
0
 10
5.01401
 20
54.986
 11
5.01401
 21
54.014
  0
LINE
  8
0
 10
5.01401
 20
54.014
 11
5.01422
 21
54
  0
LINE
  8
0
 10
5.01422
 20
54
 11
5.01535
 21
53.9846
  0
LINE
  8
0
 10
5.01535
 20
53.9846
 11
5.01535
 21
53.0154
  0
LINE
  8
0
 10
5.01535
 20
53.0154
 11
5.01666
 21
53
  0
LINE
  8
0
 10
5.01666
 20
53
 11
5.01913
 21
52.9809
  0
LINE
  8
0
 10
5.01913
 20
52.9809
 11
5.01913
 21
52.0191
  0
LINE
  8
0
 10
5.01913
 20
52.0191
 11
5.02246
 21
52
  0
LINE
  8
0
 10
5.02246
 20
52
 11
5.02335
 21
51.9766
  0
LINE
  8
0
 10
5.02335
 20
51.9766
 11
5.02335
 21
51.0233
  0
LINE
  8
0
 10
5.02335
 20
51.0233
 11
5.02432
 21
51
  0
LINE
  8
0
 10
5.02432
 20
51
 11
5.02725
 21
50.9727
  0
LINE
  8
0
 10
5.02725
 20
50.9727
 11
5.02725
 21
50.0273
  0
LINE
  8
0
 10
5.02725
 20
50.0273
 11
5.03099
 21
50
  0
LINE
  8
0
 10
5.03099
 20
50
 11
5.03522
 21
49.9648
  0
LINE
  8
0
 10
5.03522
 20
49.9648
 11
5.03522
 21
49.0352
  0
LINE
  8
0
 10
5.03522
 20
49.0352
 11
5.04079
 21
49
  0
LINE
  8
0
 10
5.04079
 20
49
 11
5.04446
 21
48.9555
  0
LINE
  8
0
 10
5.04446
 20
48.9555
 11
5.04446
 21
48.0445
  0
LINE
  8
0
 10
5.04446
 20
48.0445
 11
5.04886
 21
48
  0
LINE
  8
0
 10
5.04886
 20
48
 11
5.06363
 21
47.9364
  0
LINE
  8
0
 10
5.06363
 20
47.9364
 11
5.06363
 21
47.0636
  0
LINE
  8
0
 10
5.06363
 20
47.0636
 11
5.09117
 21
47
  0
LINE
  8
0
 10
5.09117
 20
47
 11
5.11185
 21
46.8881
  0
LINE
  8
0
 10
5.11185
 20
46.8881
 11
5.11185
 21
46.1118
  0
LINE
  8
0
 10
5.11185
 20
46.1118
 11
5.14465
 21
46
  0
LINE
  8
0
 10
5.14465
 20
46
 11
5.19725
 21
45.8027
  0
LINE
  8
0
 10
5.19725
 20
45.8027
 11
5.19725
 21
45.1973
  0
LINE
  8
0
 10
5.19725
 20
45.1973
 11
5.31
 21
45
  0
LINE
  8
0
 10
5.31
 20
45
 11
5.50714
 21
44.5071
  0
LINE
  8
0
 10
5.50714
 20
44.5071
 11
6
 21
44.1375
  0
LINE
  8
0
 10
6
 20
44.1375
 11
6.00435
 21
44
  0
LINE
  8
0
 10
6.00435
 20
44
 11
6.00444
 21
43.9955
  0
LINE
  8
0
 10
6.00444
 20
43.9955
 11
6.01231
 21
43.0123
  0
LINE
  8
0
 10
6.01231
 20
43.0123
 11
6.01259
 21
43
  0
LINE
  8
0
 10
6.01259
 20
43
 11
6.01361
 21
42.9864
  0
LINE
  8
0
 10
6.01361
 20
42.9864
 11
6.01361
 21
42.0136
  0
LINE
  8
0
 10
6.01361
 20
42.0136
 11
6.01483
 21
42
  0
LINE
  8
0
 10
6.01483
 20
42
 11
6.01683
 21
41.9832
  0
LINE
  8
0
 10
6.01683
 20
41.9832
 11
6.01683
 21
41.0168
  0
LINE
  8
0
 10
6.01683
 20
41.0168
 11
6.01945
 21
41
  0
LINE
  8
0
 10
6.01945
 20
41
 11
6.01999
 21
40.98
  0
LINE
  8
0
 10
6.01999
 20
40.98
 11
6.01999
 21
40.02
  0
LINE
  8
0
 10
6.01999
 20
40.02
 11
6.02055
 21
40
  0
LINE
  8
0
 10
6.02055
 20
40
 11
6.02435
 21
39.9756
  0
LINE
  8
0
 10
6.02435
 20
39.9756
 11
6.02435
 21
39.0244
  0
LINE
  8
0
 10
6.02435
 20
39.0244
 11
6.02985
 21
39
  0
LINE
  8
0
 10
6.02985
 20
39
 11
6.03174
 21
38.9682
  0
LINE
  8
0
 10
6.03174
 20
38.9682
 11
6.03174
 21
38.0317
  0
LINE
  8
0
 10
6.03174
 20
38.0317
 11
6.03391
 21
38
  0
LINE
  8
0
 10
6.03391
 20
38
 11
6.03853
 21
37.9615
  0
LINE
  8
0
 10
6.03853
 20
37.9615
 11
6.03853
 21
37.0385
  0
LINE
  8
0
 10
6.03853
 20
37.0385
 11
6.04465
 21
37
  0
LINE
  8
0
 10
6.04465
 20
37
 11
6.05371
 21
36.9463
  0
LINE
  8
0
 10
6.05371
 20
36.9463
 11
6.05371
 21
36.0537
  0
LINE
  8
0
 10
6.05371
 20
36.0537
 11
6.06738
 21
36
  0
LINE
  8
0
 10
6.06738
 20
36
 11
6.07948
 21
35.9205
  0
LINE
  8
0
 10
6.07948
 20
35.9205
 11
6.07948
 21
35.0795
  0
LINE
  8
0
 10
6.07948
 20
35.0795
 11
6.09686
 21
35
  0
LINE
  8
0
 10
6.09686
 20
35
 11
6.1409
 21
34.8591
  0
LINE
  8
0
 10
6.1409
 20
34.8591
 11
6.1409
 21
34.1409
  0
LINE
  8
0
 10
6.1409
 20
34.1409
 11
6.25833
 21
34
  0
LINE
  8
0
 10
6.25833
 20
34
 11
6.3875
 21
33.6125
  0
LINE
  8
0
 10
6.3875
 20
33.6125
 11
6.3875
 21
33.3875
  0
LINE
  8
0
 10
6.3875
 20
33.3875
 11
6.77499
 21
33
  0
LINE
  8
0
 10
6.77499
 20
33
 11
6.84999
 21
32.85
  0
LINE
  8
0
 10
6.84999
 20
32.85
 11
7
 21
32.775
  0
LINE
  8
0
 10
7
 20
32.775
 11
7.01363
 21
32.0136
  0
LINE
  8
0
 10
7.01363
 20
32.0136
 11
7.01509
 21
32
  0
LINE
  8
0
 10
7.01509
 20
32
 11
7.0157
 21
31.9843
  0
LINE
  8
0
 10
7.0157
 20
31.9843
 11
7.0157
 21
31.0157
  0
LINE
  8
0
 10
7.0157
 20
31.0157
 11
7.01636
 21
31
  0
LINE
  8
0
 10
7.01636
 20
31
 11
7.02016
 21
30.9798
  0
LINE
  8
0
 10
7.02016
 20
30.9798
 11
7.02016
 21
30.0202
  0
LINE
  8
0
 10
7.02016
 20
30.0202
 11
7.02626
 21
30
  0
LINE
  8
0
 10
7.02626
 20
30
 11
7.02931
 21
29.9707
  0
LINE
  8
0
 10
7.02931
 20
29.9707
 11
7.02931
 21
29.0293
  0
LINE
  8
0
 10
7.02931
 20
29.0293
 11
7.03317
 21
29
  0
LINE
  8
0
 10
7.03317
 20
29
 11
7.04097
 21
28.959
  0
LINE
  8
0
 10
7.04097
 20
28.959
 11
7.04097
 21
28.041
  0
LINE
  8
0
 10
7.04097
 20
28.041
 11
7.05357
 21
28
  0
LINE
  8
0
 10
7.05357
 20
28
 11
7.07962
 21
27.9204
  0
LINE
  8
0
 10
7.07962
 20
27.9204
 11
7.07962
 21
27.0796
  0
LINE
  8
0
 10
7.07962
 20
27.0796
 11
7.155
 21
27
  0
LINE
  8
0
 10
7.155
 20
27
 11
7.31
 21
26.69
  0
LINE
  8
0
 10
7.31
 20
26.69
 11
7.31
 21
26.31
  0
LINE
  8
0
 10
7.31
 20
26.31
 11
7.68999
 21
26.31
  0
LINE
  8
0
 10
7.68999
 20
26.31
 11
8
 21
26.155
  0
LINE
  8
0
 10
8
 20
26.155
 11
8.01212
 21
26.0121
  0
LINE
  8
0
 10
8.01212
 20
26.0121
 11
8.01308
 21
26
  0
LINE
  8
0
 10
8.01308
 20
26
 11
8.01582
 21
25.9842
  0
LINE
  8
0
 10
8.01582
 20
25.9842
 11
8.01582
 21
25.0158
  0
LINE
  8
0
 10
8.01582
 20
25.0158
 11
8.02
 21
25
  0
LINE
  8
0
 10
8.02
 20
25
 11
8.02606
 21
24.9739
  0
LINE
  8
0
 10
8.02606
 20
24.9739
 11
8.02606
 21
24.0261
  0
LINE
  8
0
 10
8.02606
 20
24.0261
 11
8.03734
 21
24
  0
LINE
  8
0
 10
8.03734
 20
24
 11
8.05794
 21
23.942
  0
LINE
  8
0
 10
8.05794
 20
23.942
 11
8.05794
 21
23.0579
  0
LINE
  8
0
 10
8.05794
 20
23.0579
 11
8.12917
 21
23
  0
LINE
  8
0
 10
8.12917
 20
23
 11
8.25833
 21
22.7417
  0
LINE
  8
0
 10
8.25833
 20
22.7417
 11
8.25833
 21
22.2583
  0
LINE
  8
0
 10
8.25833
 20
22.2583
 11
8.74165
 21
22.2583
  0
LINE
  8
0
 10
8.74165
 20
22.2583
 11
9
 21
22.1292
  0
LINE
  8
0
 10
9
 20
22.1292
 11
9.01277
 21
22.0128
  0
LINE
  8
0
 10
9.01277
 20
22.0128
 11
9.01556
 21
22
  0
LINE
  8
0
 10
9.01556
 20
22
 11
9.02177
 21
21.9782
  0
LINE
  8
0
 10
9.02177
 20
21.9782
 11
9.02177
 21
21.0218
  0
LINE
  8
0
 10
9.02177
 20
21.0218
 11
9.03622
 21
21
  0
LINE
  8
0
 10
9.03622
 20
21
 11
9.06354
 21
20.9364
  0
LINE
  8
0
 10
9.06354
 20
20.9364
 11
9.06354
 21
20.0635
  0
LINE
  8
0
 10
9.06354
 20
20.0635
 11
9.25833
 21
20
  0
LINE
  8
0
 10
9.25833
 20
20
 11
9.50555
 21
19.5056
  0
LINE
  8
0
 10
9.50555
 20
19.5056
 11
10
 21
19.2583
  0
LINE
  8
0
 10
10
 20
19.2583
 11
10.016
 21
19.016
  0
LINE
  8
0
 10
10.016
 20
19.016
 11
10.0247
 21
19
  0
LINE
  8
0
 10
10.0247
 20
19
 11
10.0438
 21
18.9562
  0
LINE
  8
0
 10
10.0438
 20
18.9562
 11
10.0438
 21
18.0438
  0
LINE
  8
0
 10
10.0438
 20
18.0438
 11
10.1937
 21
18
  0
LINE
  8
0
 10
10.1937
 20
18
 11
10.3875
 21
17.6125
  0
LINE
  8
0
 10
10.3875
 20
17.6125
 11
10.3875
 21
17.3875
  0
LINE
  8
0
 10
10.3875
 20
17.3875
 11
10.6125
 21
17.3875
  0
LINE
  8
0
 10
10.6125
 20
17.3875
 11
11
 21
17.1937
  0
LINE
  8
0
 10
11
 20
17.1937
 11
11.0164
 21
17.0164
  0
LINE
  8
0
 10
11.0164
 20
17.0164
 11
11.0318
 21
17
  0
LINE
  8
0
 10
11.0318
 20
17
 11
11.0611
 21
16.9389
  0
LINE
  8
0
 10
11.0611
 20
16.9389
 11
11.0611
 21
16.0611
  0
LINE
  8
0
 10
11.0611
 20
16.0611
 11
11.775
 21
16
  0
LINE
  8
0
 10
11.775
 20
16
 11
11.85
 21
15.85
  0
LINE
  8
0
 10
11.85
 20
15.85
 11
12
 21
15.775
  0
LINE
  8
0
 10
12
 20
15.775
 11
12.0251
 21
15.0251
  0
LINE
  8
0
 10
12.0251
 20
15.0251
 11
12.1212
 21
15
  0
LINE
  8
0
 10
12.1212
 20
15
 11
12.2424
 21
14.7576
  0
LINE
  8
0
 10
12.2424
 20
14.7576
 11
12.2424
 21
14.2424
  0
LINE
  8
0
 10
12.2424
 20
14.2424
 11
12.7576
 21
14.2424
  0
LINE
  8
0
 10
12.7576
 20
14.2424
 11
13
 21
14.1212
  0
LINE
  8
0
 10
13
 20
14.1212
 11
13.0156
 21
14.0156
  0
LINE
  8
0
 10
13.0156
 20
14.0156
 11
13.0489
 21
14
  0
LINE
  8
0
 10
13.0489
 20
14
 11
13.0977
 21
13.9023
  0
LINE
  8
0
 10
13.0977
 20
13.9023
 11
13.0977
 21
13.0977
  0
LINE
  8
0
 10
13.0977
 20
13.0977
 11
13.9023
 21
13.0977
  0
LINE
  8
0
 10
13.9023
 20
13.0977
 11
14
 21
13.0489
  0
LINE
  8
0
 10
14
 20
13.0489
 11
14.0119
 21
13.0119
  0
LINE
  8
0
 10
14.0119
 20
13.0119
 11
14.0292
 21
13
  0
LINE
  8
0
 10
14.0292
 20
13
 11
14.0585
 21
12.9415
  0
LINE
  8
0
 10
14.0585
 20
12.9415
 11
14.0585
 21
12.0585
  0
LINE
  8
0
 10
14.0585
 20
12.0585
 11
14.9415
 21
12.0585
  0
LINE
  8
0
 10
14.9415
 20
12.0585
 11
15
 21
12.0292
  0
LINE
  8
0
 10
15
 20
12.0292
 11
15.0105
 21
12.0105
  0
LINE
  8
0
 10
15.0105
 20
12.0105
 11
15.0267
 21
12
  0
LINE
  8
0
 10
15.0267
 20
12
 11
15.0534
 21
11.9465
  0
LINE
  8
0
 10
15.0534
 20
11.9465
 11
15.0534
 21
11.0534
  0
LINE
  8
0
 10
15.0534
 20
11.0534
 11
15.9465
 21
11.0534
  0
LINE
  8
0
 10
15.9465
 20
11.0534
 11
16
 21
11.0267
  0
LINE
  8
0
 10
16
 20
11.0267
 11
16.0108
 21
11.0108
  0
LINE
  8
0
 10
16.0108
 20
11.0108
 11
16.0419
 21
11
  0
LINE
  8
0
 10
16.0419
 20
11
 11
16.0838
 21
10.9162
  0
LINE
  8
0
 10
16.0838
 20
10.9162
 11
16.0838
 21
10.0838
  0
LINE
  8
0
 10
16.0838
 20
10.0838
 11
16.9162
 21
10.0838
  0
LINE
  8
0
 10
16.9162
 20
10.0838
 11
17
 21
10.0419
  0
LINE
  8
0
 10
17
 20
10.0419
 11
17.0123
 21
10.0123
  0
LINE
  8
0
 10
17.0123
 20
10.0123
 11
17.068
 21
10
  0
LINE
  8
0
 10
17.068
 20
10
 11
17.136
 21
9.86395
  0
LINE
  8
0
 10
17.136
 20
9.86395
 11
17.136
 21
9.13603
  0
LINE
  8
0
 10
17.136
 20
9.13603
 11
17.864
 21
9.13603
  0
LINE
  8
0
 10
17.864
 20
9.13603
 11
18
 21
9.06801
  0
LINE
  8
0
 10
18
 20
9.06801
 11
18.0158
 21
9.01579
  0
LINE
  8
0
 10
18.0158
 20
9.01579
 11
18.1937
 21
9
  0
LINE
  8
0
 10
18.1937
 20
9
 11
18.3875
 21
8.61249
  0
LINE
  8
0
 10
18.3875
 20
8.61249
 11
18.3875
 21
8.3875
  0
LINE
  8
0
 10
18.3875
 20
8.3875
 11
18.6125
 21
8.3875
  0
LINE
  8
0
 10
18.6125
 20
8.3875
 11
19
 21
8.19374
  0
LINE
  8
0
 10
19
 20
8.19374
 11
19.0247
 21
8.02467
  0
LINE
  8
0
 10
19.0247
 20
8.02467
 11
19.9753
 21
8.02467
  0
LINE
  8
0
 10
19.9753
 20
8.02467
 11
20
 21
8.01317
  0
LINE
  8
0
 10
20
 20
8.01317
 11
20.0085
 21
8.0085
  0
LINE
  8
0
 10
20.0085
 20
8.0085
 11
20.0317
 21
8
  0
LINE
  8
0
 10
20.0317
 20
8
 11
20.0634
 21
7.93663
  0
LINE
  8
0
 10
20.0634
 20
7.93663
 11
20.0634
 21
7.06335
  0
LINE
  8
0
 10
20.0634
 20
7.06335
 11
20.9366
 21
7.06335
  0
LINE
  8
0
 10
20.9366
 20
7.06335
 11
21
 21
7.03168
  0
LINE
  8
0
 10
21
 20
7.03168
 11
21.0131
 21
7.01306
  0
LINE
  8
0
 10
21.0131
 20
7.01306
 11
21.2583
 21
7
  0
LINE
  8
0
 10
21.2583
 20
7
 11
21.5056
 21
6.50555
  0
LINE
  8
0
 10
21.5056
 20
6.50555
 11
22
 21
6.25833
  0
LINE
  8
0
 10
22
 20
6.25833
 11
22.0392
 21
6.03923
  0
LINE
  8
0
 10
22.0392
 20
6.03923
 11
22.9608
 21
6.03923
  0
LINE
  8
0
 10
22.9608
 20
6.03923
 11
23
 21
6.02122
  0
LINE
  8
0
 10
23
 20
6.02122
 11
23.0112
 21
6.01118
  0
LINE
  8
0
 10
23.0112
 20
6.01118
 11
23.31
 21
6
  0
LINE
  8
0
 10
23.31
 20
6
 11
23.54
 21
5.53999
  0
LINE
  8
0
 10
23.54
 20
5.53999
 11
24
 21
5.31
  0
LINE
  8
0
 10
24
 20
5.31
 11
24.0502
 21
5.05022
  0
LINE
  8
0
 10
24.0502
 20
5.05022
 11
24.9498
 21
5.05022
  0
LINE
  8
0
 10
24.9498
 20
5.05022
 11
25
 21
5.02733
  0
LINE
  8
0
 10
25
 20
5.02733
 11
25.0142
 21
5.01424
  0
LINE
  8
0
 10
25.0142
 20
5.01424
 11
25.9857
 21
5.01424
  0
LINE
  8
0
 10
25.9857
 20
5.01424
 11
26
 21
5.00963
  0
LINE
  8
0
 10
26
 20
5.00963
 11
26.008
 21
5.00801
  0
LINE
  8
0
 10
26.008
 20
5.00801
 11
26.0775
 21
5
  0
LINE
  8
0
 10
26.0775
 20
5
 11
26.155
 21
4.84499
  0
LINE
  8
0
 10
26.155
 20
4.84499
 11
26.155
 21
4.155
  0
LINE
  8
0
 10
26.155
 20
4.155
 11
26.845
 21
4.155
  0
LINE
  8
0
 10
26.845
 20
4.155
 11
27
 21
4.0775
  0
LINE
  8
0
 10
27
 20
4.0775
 11
27.0327
 21
4.03271
  0
LINE
  8
0
 10
27.0327
 20
4.03271
 11
27.9673
 21
4.03271
  0
LINE
  8
0
 10
27.9673
 20
4.03271
 11
28
 21
4.02074
  0
LINE
  8
0
 10
28
 20
4.02074
 11
28.0141
 21
4.01405
  0
LINE
  8
0
 10
28.0141
 20
4.01405
 11
28.9859
 21
4.01405
  0
LINE
  8
0
 10
28.9859
 20
4.01405
 11
29.0085
 21
4.00853
  0
LINE
  8
0
 10
29.0085
 20
4.00853
 11
29.31
 21
4
  0
LINE
  8
0
 10
29.31
 20
4
 11
29.54
 21
3.53999
  0
LINE
  8
0
 10
29.54
 20
3.53999
 11
30
 21
3.31
  0
LINE
  8
0
 10
30
 20
3.31
 11
30.0838
 21
3.08377
  0
LINE
  8
0
 10
30.0838
 20
3.08377
 11
30.9162
 21
3.08377
  0
LINE
  8
0
 10
30.9162
 20
3.08377
 11
31
 21
3.04843
  0
LINE
  8
0
 10
31
 20
3.04843
 11
31.0302
 21
3.03017
  0
LINE
  8
0
 10
31.0302
 20
3.03017
 11
31.9698
 21
3.03017
  0
LINE
  8
0
 10
31.9698
 20
3.03017
 11
32
 21
3.02191
  0
LINE
  8
0
 10
32
 20
3.02191
 11
32.0166
 21
3.0166
  0
LINE
  8
0
 10
32.0166
 20
3.0166
 11
32.9834
 21
3.0166
  0
LINE
  8
0
 10
32.9834
 20
3.0166
 11
33
 21
3.01337
  0
LINE
  8
0
 10
33
 20
3.01337
 11
33.0102
 21
3.01018
  0
LINE
  8
0
 10
33.0102
 20
3.01018
 11
33.9898
 21
3.01018
  0
LINE
  8
0
 10
33.9898
 20
3.01018
 11
34
 21
3.00822
  0
LINE
  8
0
 10
34
 20
3.00822
 11
34.0078
 21
3.00784
  0
LINE
  8
0
 10
34.0078
 20
3.00784
 11
34.775
 21
3
  0
LINE
  8
0
 10
34.775
 20
3
 11
34.85
 21
2.84999
  0
LINE
  8
0
 10
34.85
 20
2.84999
 11
35
 21
2.77499
  0
LINE
  8
0
 10
35
 20
2.77499
 11
35.2583
 21
2.25833
  0
LINE
  8
0
 10
35.2583
 20
2.25833
 11
35.7417
 21
2.25833
  0
LINE
  8
0
 10
35.7417
 20
2.25833
 11
36
 21
2.155
  0
LINE
  8
0
 10
36
 20
2.155
 11
36.0795
 21
2.07948
  0
LINE
  8
0
 10
36.0795
 20
2.07948
 11
36.9205
 21
2.07948
  0
LINE
  8
0
 10
36.9205
 20
2.07948
 11
37
 21
2.05344
  0
LINE
  8
0
 10
37
 20
2.05344
 11
37.0431
 21
2.04309
  0
LINE
  8
0
 10
37.0431
 20
2.04309
 11
37.9569
 21
2.04309
  0
LINE
  8
0
 10
37.9569
 20
2.04309
 11
38
 21
2.0361
  0
LINE
  8
0
 10
38
 20
2.0361
 11
38.0282
 21
2.02821
  0
LINE
  8
0
 10
38.0282
 20
2.02821
 11
38.9718
 21
2.02821
  0
LINE
  8
0
 10
38.9718
 20
2.02821
 11
39
 21
2.02315
  0
LINE
  8
0
 10
39
 20
2.02315
 11
39.0214
 21
2.02139
  0
LINE
  8
0
 10
39.0214
 20
2.02139
 11
39.9786
 21
2.02139
  0
LINE
  8
0
 10
39.9786
 20
2.02139
 11
40
 21
2.01988
  0
LINE
  8
0
 10
40
 20
2.01988
 11
40.0175
 21
2.01752
  0
LINE
  8
0
 10
40.0175
 20
2.01752
 11
40.9825
 21
2.01752
  0
LINE
  8
0
 10
40.9825
 20
2.01752
 11
41
 21
2.01566
  0
LINE
  8
0
 10
41
 20
2.01566
 11
41.0133
 21
2.01331
  0
LINE
  8
0
 10
41.0133
 20
2.01331
 11
41.9867
 21
2.01331
  0
LINE
  8
0
 10
41.9867
 20
2.01331
 11
42
 21
2.01157
  0
LINE
  8
0
 10
42
 20
2.01157
 11
42.0114
 21
2.01137
  0
LINE
  8
0
 10
42.0114
 20
2.01137
 11
42.9886
 21
2.01137
  0
LINE
  8
0
 10
42.9886
 20
2.01137
 11
43
 21
2.01118
  0
LINE
  8
0
 10
43
 20
2.01118
 11
43.01
 21
2.01001
  0
LINE
  8
0
 10
43.01
 20
2.01001
 11
43.99
 21
2.01001
  0
LINE
  8
0
 10
43.99
 20
2.01001
 11
44
 21
2.00906
  0
LINE
  8
0
 10
44
 20
2.00906
 11
44.0078
 21
2.00781
  0
LINE
  8
0
 10
44.0078
 20
2.00781
 11
44.9972
 21
2.00279
  0
LINE
  8
0
 10
44.9972
 20
2.00279
 11
45
 21
2.00246
  0
LINE
  8
0
 10
45
 20
2.00246
 11
45.275
 21
2
  0
LINE
  8
0
 10
45.275
 20
2
 11
45.6375
 21
1.6375
  0
LINE
  8
0
 10
45.6375
 20
1.6375
 11
46.3875
 21
1.3875
  0
LINE
  8
0
 10
46.3875
 20
1.3875
 11
46.6125
 21
1.3875
  0
LINE
  8
0
 10
46.6125
 20
1.3875
 11
47
 21
1.31
  0
LINE
  8
0
 10
47
 20
1.31
 11
47.1823
 21
1.18234
  0
LINE
  8
0
 10
47.1823
 20
1.18234
 11
47.8176
 21
1.18234
  0
LINE
  8
0
 10
47.8176
 20
1.18234
 11
48
 21
1.12917
  0
LINE
  8
0
 10
48
 20
1.12917
 11
48.1036
 21
1.10358
  0
LINE
  8
0
 10
48.1036
 20
1.10358
 11
48.8964
 21
1.10358
  0
LINE
  8
0
 10
48.8964
 20
1.10358
 11
49
 21
1.08646
  0
LINE
  8
0
 10
49
 20
1.08646
 11
49.0757
 21
1.07573
  0
LINE
  8
0
 10
49.0757
 20
1.07573
 11
49.9243
 21
1.07573
  0
LINE
  8
0
 10
49.9243
 20
1.07573
 11
50
 21
1.06738
  0
LINE
  8
0
 10
50
 20
1.06738
 11
50.062
 21
1.062
  0
LINE
  8
0
 10
50.062
 20
1.062
 11
50.938
 21
1.062
  0
LINE
  8
0
 10
50.938
 20
1.062
 11
51
 21
1.0574
  0
LINE
  8
0
 10
51
 20
1.0574
 11
51.0479
 21
1.0479
  0
LINE
  8
0
 10
51.0479
 20
1.0479
 11
51.9521
 21
1.0479
  0
LINE
  8
0
 10
51.9521
 20
1.0479
 11
52
 21
1.04109
  0
LINE
  8
0
 10
52
 20
1.04109
 11
52.0366
 21
1.03659
  0
LINE
  8
0
 10
52.0366
 20
1.03659
 11
52.9634
 21
1.03659
  0
LINE
  8
0
 10
52.9634
 20
1.03659
 11
53
 21
1.03297
  0
LINE
  8
0
 10
53
 20
1.03297
 11
53.0313
 21
1.03131
  0
LINE
  8
0
 10
53.0313
 20
1.03131
 11
53.9687
 21
1.03131
  0
LINE
  8
0
 10
53.9687
 20
1.03131
 11
54
 21
1.0298
  0
LINE
  8
0
 10
54
 20
1.0298
 11
54.0287
 21
1.0287
  0
LINE
  8
0
 10
54.0287
 20
1.0287
 11
54.9713
 21
1.0287
  0
LINE
  8
0
 10
54.9713
 20
1.0287
 11
55
 21
1.02766
  0
LINE
  8
0
 10
55
 20
1.02766
 11
55.0272
 21
1.02719
  0
LINE
  8
0
 10
55.0272
 20
1.02719
 11
55.9728
 21
1.02719
  0
LINE
  8
0
 10
55.9728
 20
1.02719
 11
56
 21
1.02672
  0
LINE
  8
0
 10
56
 20
1.02672
 11
56.0265
 21
1.02649
  0
LINE
  8
0
 10
56.0265
 20
1.02649
 11
56.9735
 21
1.02649
  0
LINE
  8
0
 10
56.9735
 20
1.02649
 11
57.026
 21
1.02605
  0
LINE
  8
0
 10
57.026
 20
1.02605
 11
57.9739
 21
1.02605
  0
LINE
  8
0
 10
57.9739
 20
1.02605
 11
58
 21
1.02583
  0
LINE
  8
0
 10
58
 20
1.02583
 11
61
 21
1.02583
  0
LINE
  8
0
 10
61
 20
1.02583
 11
61.026
 21
1.02605
  0
ENDSEC
  0
SECTION
  2
OBJECTS
  0
DICTIONARY
  0
ENDSEC
  0
EOF
